M48
; DRILL file {KiCad (5.1.4)-1} date 03/07/2021 18:30:23
; FORMAT={-:-/ absolute / metric / decimal}
; #@! TF.CreationDate,2021-07-03T18:30:23-04:00
; #@! TF.GenerationSoftware,Kicad,Pcbnew,(5.1.4)-1
; #@! TF.FileFunction,Plated,1,4,PTH
FMAT,2
METRIC
T1C0.400
T2C0.800
T3C1.000
T4C1.500
T5C1.520
T6C1.700
T7C3.600
%
G90
G05
T1
X11.25Y-27.0
X11.25Y-29.5
X11.25Y-32.0
X11.25Y-34.5
X11.25Y-37.0
X11.25Y-39.5
X11.25Y-42.0
X11.25Y-44.5
X11.25Y-47.0
X11.25Y-49.5
X11.25Y-52.0
X11.25Y-54.5
X11.25Y-57.0
X11.25Y-59.5
X11.25Y-62.0
X11.25Y-64.5
X11.25Y-67.0
X11.25Y-69.5
X11.25Y-72.0
X11.25Y-74.5
X11.25Y-77.0
X11.25Y-79.5
X11.25Y-82.0
X11.25Y-84.5
X11.25Y-87.0
X11.25Y-89.5
X11.25Y-92.0
X11.25Y-94.5
X11.25Y-97.0
X11.25Y-99.5
X11.25Y-102.0
X11.25Y-104.5
X11.25Y-107.0
X12.5Y-108.5
X13.75Y-27.0
X15.0Y-108.5
X16.25Y-27.0
X17.5Y-108.5
X18.75Y-27.0
X20.0Y-108.5
X20.25Y-83.25
X21.25Y-27.0
X22.0Y-84.5
X22.5Y-108.5
X23.75Y-27.0
X24.5Y-64.75
X25.0Y-70.25
X26.25Y-27.0
X26.25Y-37.5
X26.25Y-41.5
X26.25Y-45.75
X26.25Y-48.25
X26.25Y-51.25
X26.25Y-53.75
X26.25Y-56.5
X26.25Y-59.25
X26.25Y-79.5
X26.25Y-81.0
X26.25Y-82.25
X26.25Y-83.5
X26.25Y-85.0
X27.25Y-63.25
X28.5Y-70.25
X28.75Y-27.0
X29.25Y-74.25
X29.75Y-63.25
X29.75Y-85.0
X30.25Y-37.5
X30.75Y-46.25
X30.75Y-77.0
X31.25Y-27.0
X31.75Y-83.0
X32.75Y-65.5
X32.75Y-88.25
X33.0Y-70.0
X33.25Y-48.75
X33.25Y-78.25
X33.75Y-27.0
X34.0Y-83.0
X34.25Y-37.5
X34.25Y-80.0
X34.75Y-29.5
X34.75Y-63.75
X34.75Y-73.0
X34.75Y-78.25
X35.25Y-85.75
X35.25Y-88.25
X35.5Y-45.25
X35.75Y-16.0
X35.75Y-17.5
X35.75Y-19.0
X35.75Y-22.0
X35.75Y-23.5
X36.25Y-34.5
X36.25Y-38.75
X36.25Y-78.25
X37.25Y-16.0
X37.25Y-17.5
X37.25Y-19.0
X37.25Y-22.0
X37.25Y-23.5
X37.25Y-85.75
X37.25Y-88.25
X37.75Y-68.5
X37.75Y-78.25
X38.0Y-66.0
X38.275Y-80.75
X38.75Y-16.0
X38.75Y-17.5
X38.75Y-19.0
X38.75Y-22.0
X38.75Y-23.5
X38.75Y-41.75
X39.5Y-63.0
X40.0Y-88.25
X40.25Y-35.75
X40.5Y-27.75
X40.5Y-30.0
X41.5Y-108.75
X41.75Y-16.0
X41.75Y-17.5
X41.75Y-19.0
X41.75Y-22.0
X41.75Y-23.5
X41.75Y-30.75
X41.75Y-44.5
X41.77Y-29.0
X42.0Y-47.0
X42.0Y-68.0
X42.0Y-70.75
X42.0Y-74.5
X42.25Y-39.5
X43.25Y-16.0
X43.25Y-17.5
X43.25Y-19.0
X43.25Y-22.0
X43.25Y-23.5
X43.25Y-108.75
X43.5Y-48.75
X43.5Y-85.75
X43.5Y-88.25
X43.75Y-69.25
X43.75Y-72.5
X44.5Y-46.75
X44.5Y-78.0
X44.75Y-16.0
X44.75Y-17.5
X44.75Y-19.0
X44.75Y-22.0
X44.75Y-23.5
X44.75Y-42.25
X45.25Y-108.75
X45.75Y-85.75
X45.75Y-88.25
X47.0Y-108.75
X47.25Y-32.5
X47.5Y-45.0
X48.25Y-85.75
X48.25Y-88.5
X48.75Y-27.0
X48.75Y-29.0
X49.0Y-108.75
X50.5Y-49.75
X51.0Y-88.5
X51.25Y-27.0
X51.25Y-78.25
X52.0Y-32.0
X53.5Y-47.5
X53.5Y-78.25
X53.5Y-80.25
X53.75Y-27.0
X54.0Y-85.75
X54.0Y-88.5
X54.75Y-29.5
X54.75Y-34.5
X55.75Y-78.25
X56.25Y-27.0
X56.25Y-85.75
X56.5Y-88.5
X57.75Y-80.25
X58.0Y-62.25
X58.0Y-78.25
X58.25Y-36.25
X58.25Y-39.25
X58.25Y-42.0
X58.25Y-44.5
X58.25Y-47.25
X58.25Y-49.75
X58.75Y-27.0
X59.75Y-64.5
X61.25Y-27.0
X63.5Y-37.75
X63.5Y-41.75
X63.5Y-46.0
X63.75Y-27.0
X64.25Y-61.5
X64.25Y-64.0
X65.25Y-70.0
X65.25Y-78.5
X65.25Y-80.5
X65.25Y-81.5
X65.25Y-83.0
X66.0Y-74.0
X66.25Y-27.0
X67.5Y-108.5
X68.0Y-61.5
X68.0Y-64.0
X68.0Y-66.5
X68.0Y-69.0
X68.75Y-27.0
X70.0Y-108.5
X70.5Y-37.75
X70.5Y-42.0
X70.5Y-46.25
X71.25Y-27.0
X72.5Y-108.5
X73.75Y-27.0
X75.0Y-108.5
X76.25Y-27.0
X76.25Y-29.5
X77.5Y-108.5
X78.75Y-27.0
X78.75Y-29.5
X78.75Y-32.0
X78.75Y-34.5
X78.75Y-37.0
X78.75Y-39.5
X78.75Y-42.0
X78.75Y-44.5
X78.75Y-47.0
X78.75Y-49.5
X78.75Y-52.0
X78.75Y-54.5
X78.75Y-57.0
X78.75Y-59.5
X78.75Y-62.0
X78.75Y-64.5
X78.75Y-67.0
X78.75Y-69.5
X78.75Y-72.0
X78.75Y-74.5
X78.75Y-77.0
X78.75Y-79.5
X78.75Y-82.0
X78.75Y-84.5
X78.75Y-87.0
X78.75Y-89.5
X78.75Y-92.0
X78.75Y-94.5
X78.75Y-97.0
X78.75Y-99.5
X78.75Y-102.0
X78.75Y-104.5
X78.75Y-107.0
T2
X63.5Y-54.75
X63.5Y-67.45
X19.5Y-62.75
X32.2Y-62.75
X53.05Y-43.75
X65.75Y-43.75
X36.3Y-71.0
X49.0Y-71.0
X19.5Y-58.5
X32.2Y-58.5
X19.5Y-54.0
X32.2Y-54.0
X53.05Y-39.75
X65.75Y-39.75
X51.5Y-28.5
X64.2Y-28.5
X41.75Y-36.5
X44.25Y-36.5
X53.05Y-49.5
X65.75Y-49.5
X53.05Y-35.75
X65.75Y-35.75
X58.25Y-54.75
X58.25Y-67.45
X35.05Y-47.5
X47.75Y-47.5
X36.3Y-67.0
X49.0Y-67.0
T3
X31.0Y-93.0
X31.0Y-98.0
X29.17Y-43.0
X31.71Y-43.0
X34.25Y-43.0
X27.5Y-72.0
X30.04Y-72.0
X32.58Y-72.0
X40.0Y-80.75
X40.0Y-85.75
X61.0Y-94.0
X61.0Y-99.0
X32.5Y-29.92
X32.5Y-32.46
X32.5Y-35.0
X51.0Y-80.5
X51.0Y-85.5
T4
X20.75Y-39.5
T5
X37.67Y-103.75
X42.75Y-103.75
X74.0Y-61.75
X74.0Y-66.83
X74.0Y-36.0
X74.0Y-41.08
X74.0Y-46.16
X74.0Y-51.24
X74.0Y-56.32
X48.42Y-103.75
X53.5Y-103.75
T6
X18.21Y-36.96
X18.21Y-42.04
X23.29Y-36.96
X23.29Y-42.04
T7
X20.0Y-20.0
X20.0Y-100.0
X70.0Y-20.0
X70.0Y-74.0
X70.0Y-100.0
T0
M30
