G04 #@! TF.GenerationSoftware,KiCad,Pcbnew,(5.1.4)-1*
G04 #@! TF.CreationDate,2021-07-03T18:30:16-04:00*
G04 #@! TF.ProjectId,beefy_linear_mosfet,62656566-795f-46c6-996e-6561725f6d6f,rev?*
G04 #@! TF.SameCoordinates,Original*
G04 #@! TF.FileFunction,Soldermask,Top*
G04 #@! TF.FilePolarity,Negative*
%FSLAX46Y46*%
G04 Gerber Fmt 4.6, Leading zero omitted, Abs format (unit mm)*
G04 Created by KiCad (PCBNEW (5.1.4)-1) date 2021-07-03 18:30:16*
%MOMM*%
%LPD*%
G04 APERTURE LIST*
%ADD10C,0.100000*%
%ADD11C,0.150000*%
G04 APERTURE END LIST*
D10*
G36*
X65000000Y-25750000D02*
G01*
X25000000Y-25750000D01*
X25000000Y-10000000D01*
X65000000Y-10000000D01*
X65000000Y-25750000D01*
G37*
X65000000Y-25750000D02*
X25000000Y-25750000D01*
X25000000Y-10000000D01*
X65000000Y-10000000D01*
X65000000Y-25750000D01*
D11*
X41166666Y-93702380D02*
X41166666Y-92702380D01*
X41166666Y-93178571D02*
X41738095Y-93178571D01*
X41738095Y-93702380D02*
X41738095Y-92702380D01*
X42119047Y-93035714D02*
X42642857Y-93035714D01*
X42119047Y-93702380D01*
X42642857Y-93702380D01*
X43023809Y-93607142D02*
X43071428Y-93654761D01*
X43023809Y-93702380D01*
X42976190Y-93654761D01*
X43023809Y-93607142D01*
X43023809Y-93702380D01*
X43976190Y-93702380D02*
X43500000Y-93702380D01*
X43500000Y-92702380D01*
X44309523Y-93702380D02*
X44309523Y-93035714D01*
X44309523Y-92702380D02*
X44261904Y-92750000D01*
X44309523Y-92797619D01*
X44357142Y-92750000D01*
X44309523Y-92702380D01*
X44309523Y-92797619D01*
X44785714Y-93035714D02*
X44785714Y-93702380D01*
X44785714Y-93130952D02*
X44833333Y-93083333D01*
X44928571Y-93035714D01*
X45071428Y-93035714D01*
X45166666Y-93083333D01*
X45214285Y-93178571D01*
X45214285Y-93702380D01*
X46785714Y-93178571D02*
X46928571Y-93226190D01*
X46976190Y-93273809D01*
X47023809Y-93369047D01*
X47023809Y-93511904D01*
X46976190Y-93607142D01*
X46928571Y-93654761D01*
X46833333Y-93702380D01*
X46452380Y-93702380D01*
X46452380Y-92702380D01*
X46785714Y-92702380D01*
X46880952Y-92750000D01*
X46928571Y-92797619D01*
X46976190Y-92892857D01*
X46976190Y-92988095D01*
X46928571Y-93083333D01*
X46880952Y-93130952D01*
X46785714Y-93178571D01*
X46452380Y-93178571D01*
X47452380Y-93178571D02*
X47785714Y-93178571D01*
X47928571Y-93702380D02*
X47452380Y-93702380D01*
X47452380Y-92702380D01*
X47928571Y-92702380D01*
X48928571Y-93607142D02*
X48880952Y-93654761D01*
X48738095Y-93702380D01*
X48642857Y-93702380D01*
X48500000Y-93654761D01*
X48404761Y-93559523D01*
X48357142Y-93464285D01*
X48309523Y-93273809D01*
X48309523Y-93130952D01*
X48357142Y-92940476D01*
X48404761Y-92845238D01*
X48500000Y-92750000D01*
X48642857Y-92702380D01*
X48738095Y-92702380D01*
X48880952Y-92750000D01*
X48928571Y-92797619D01*
X49833333Y-92702380D02*
X49357142Y-92702380D01*
X49309523Y-93178571D01*
X49357142Y-93130952D01*
X49452380Y-93083333D01*
X49690476Y-93083333D01*
X49785714Y-93130952D01*
X49833333Y-93178571D01*
X49880952Y-93273809D01*
X49880952Y-93511904D01*
X49833333Y-93607142D01*
X49785714Y-93654761D01*
X49690476Y-93702380D01*
X49452380Y-93702380D01*
X49357142Y-93654761D01*
X49309523Y-93607142D01*
D10*
G36*
X55051000Y-105301000D02*
G01*
X51949000Y-105301000D01*
X51949000Y-102199000D01*
X55051000Y-102199000D01*
X55051000Y-105301000D01*
X55051000Y-105301000D01*
G37*
G36*
X48722585Y-102228802D02*
G01*
X48872410Y-102258604D01*
X49154674Y-102375521D01*
X49408705Y-102545259D01*
X49624741Y-102761295D01*
X49794479Y-103015326D01*
X49911396Y-103297590D01*
X49971000Y-103597240D01*
X49971000Y-103902760D01*
X49911396Y-104202410D01*
X49794479Y-104484674D01*
X49624741Y-104738705D01*
X49408705Y-104954741D01*
X49154674Y-105124479D01*
X48872410Y-105241396D01*
X48722585Y-105271198D01*
X48572761Y-105301000D01*
X48267239Y-105301000D01*
X48117415Y-105271198D01*
X47967590Y-105241396D01*
X47685326Y-105124479D01*
X47431295Y-104954741D01*
X47215259Y-104738705D01*
X47045521Y-104484674D01*
X46928604Y-104202410D01*
X46869000Y-103902760D01*
X46869000Y-103597240D01*
X46928604Y-103297590D01*
X47045521Y-103015326D01*
X47215259Y-102761295D01*
X47431295Y-102545259D01*
X47685326Y-102375521D01*
X47967590Y-102258604D01*
X48117415Y-102228802D01*
X48267239Y-102199000D01*
X48572761Y-102199000D01*
X48722585Y-102228802D01*
X48722585Y-102228802D01*
G37*
G36*
X44301000Y-105301000D02*
G01*
X41199000Y-105301000D01*
X41199000Y-102199000D01*
X44301000Y-102199000D01*
X44301000Y-105301000D01*
X44301000Y-105301000D01*
G37*
G36*
X37972585Y-102228802D02*
G01*
X38122410Y-102258604D01*
X38404674Y-102375521D01*
X38658705Y-102545259D01*
X38874741Y-102761295D01*
X39044479Y-103015326D01*
X39161396Y-103297590D01*
X39221000Y-103597240D01*
X39221000Y-103902760D01*
X39161396Y-104202410D01*
X39044479Y-104484674D01*
X38874741Y-104738705D01*
X38658705Y-104954741D01*
X38404674Y-105124479D01*
X38122410Y-105241396D01*
X37972585Y-105271198D01*
X37822761Y-105301000D01*
X37517239Y-105301000D01*
X37367415Y-105271198D01*
X37217590Y-105241396D01*
X36935326Y-105124479D01*
X36681295Y-104954741D01*
X36465259Y-104738705D01*
X36295521Y-104484674D01*
X36178604Y-104202410D01*
X36119000Y-103902760D01*
X36119000Y-103597240D01*
X36178604Y-103297590D01*
X36295521Y-103015326D01*
X36465259Y-102761295D01*
X36681295Y-102545259D01*
X36935326Y-102375521D01*
X37217590Y-102258604D01*
X37367415Y-102228802D01*
X37517239Y-102199000D01*
X37822761Y-102199000D01*
X37972585Y-102228802D01*
X37972585Y-102228802D01*
G37*
G36*
X62051000Y-100051000D02*
G01*
X59949000Y-100051000D01*
X59949000Y-97949000D01*
X62051000Y-97949000D01*
X62051000Y-100051000D01*
X62051000Y-100051000D01*
G37*
G36*
X31306564Y-96989389D02*
G01*
X31497833Y-97068615D01*
X31497835Y-97068616D01*
X31536411Y-97094392D01*
X31669973Y-97183635D01*
X31816365Y-97330027D01*
X31931385Y-97502167D01*
X32010611Y-97693436D01*
X32051000Y-97896484D01*
X32051000Y-98103516D01*
X32010611Y-98306564D01*
X31931385Y-98497833D01*
X31931384Y-98497835D01*
X31816365Y-98669973D01*
X31669973Y-98816365D01*
X31497835Y-98931384D01*
X31497834Y-98931385D01*
X31497833Y-98931385D01*
X31306564Y-99010611D01*
X31103516Y-99051000D01*
X30896484Y-99051000D01*
X30693436Y-99010611D01*
X30502167Y-98931385D01*
X30502166Y-98931385D01*
X30502165Y-98931384D01*
X30330027Y-98816365D01*
X30183635Y-98669973D01*
X30068616Y-98497835D01*
X30068615Y-98497833D01*
X29989389Y-98306564D01*
X29949000Y-98103516D01*
X29949000Y-97896484D01*
X29989389Y-97693436D01*
X30068615Y-97502167D01*
X30183635Y-97330027D01*
X30330027Y-97183635D01*
X30463589Y-97094392D01*
X30502165Y-97068616D01*
X30502167Y-97068615D01*
X30693436Y-96989389D01*
X30896484Y-96949000D01*
X31103516Y-96949000D01*
X31306564Y-96989389D01*
X31306564Y-96989389D01*
G37*
G36*
X53100562Y-97078181D02*
G01*
X53135481Y-97088774D01*
X53167663Y-97105976D01*
X53195873Y-97129127D01*
X53219024Y-97157337D01*
X53236226Y-97189519D01*
X53246819Y-97224438D01*
X53251000Y-97266895D01*
X53251000Y-98733105D01*
X53246819Y-98775562D01*
X53236226Y-98810481D01*
X53219024Y-98842663D01*
X53195873Y-98870873D01*
X53167663Y-98894024D01*
X53135481Y-98911226D01*
X53100562Y-98921819D01*
X53058105Y-98926000D01*
X51916895Y-98926000D01*
X51874438Y-98921819D01*
X51839519Y-98911226D01*
X51807337Y-98894024D01*
X51779127Y-98870873D01*
X51755976Y-98842663D01*
X51738774Y-98810481D01*
X51728181Y-98775562D01*
X51724000Y-98733105D01*
X51724000Y-97266895D01*
X51728181Y-97224438D01*
X51738774Y-97189519D01*
X51755976Y-97157337D01*
X51779127Y-97129127D01*
X51807337Y-97105976D01*
X51839519Y-97088774D01*
X51874438Y-97078181D01*
X51916895Y-97074000D01*
X53058105Y-97074000D01*
X53100562Y-97078181D01*
X53100562Y-97078181D01*
G37*
G36*
X50125562Y-97078181D02*
G01*
X50160481Y-97088774D01*
X50192663Y-97105976D01*
X50220873Y-97129127D01*
X50244024Y-97157337D01*
X50261226Y-97189519D01*
X50271819Y-97224438D01*
X50276000Y-97266895D01*
X50276000Y-98733105D01*
X50271819Y-98775562D01*
X50261226Y-98810481D01*
X50244024Y-98842663D01*
X50220873Y-98870873D01*
X50192663Y-98894024D01*
X50160481Y-98911226D01*
X50125562Y-98921819D01*
X50083105Y-98926000D01*
X48941895Y-98926000D01*
X48899438Y-98921819D01*
X48864519Y-98911226D01*
X48832337Y-98894024D01*
X48804127Y-98870873D01*
X48780976Y-98842663D01*
X48763774Y-98810481D01*
X48753181Y-98775562D01*
X48749000Y-98733105D01*
X48749000Y-97266895D01*
X48753181Y-97224438D01*
X48763774Y-97189519D01*
X48780976Y-97157337D01*
X48804127Y-97129127D01*
X48832337Y-97105976D01*
X48864519Y-97088774D01*
X48899438Y-97078181D01*
X48941895Y-97074000D01*
X50083105Y-97074000D01*
X50125562Y-97078181D01*
X50125562Y-97078181D01*
G37*
G36*
X42100562Y-97078181D02*
G01*
X42135481Y-97088774D01*
X42167663Y-97105976D01*
X42195873Y-97129127D01*
X42219024Y-97157337D01*
X42236226Y-97189519D01*
X42246819Y-97224438D01*
X42251000Y-97266895D01*
X42251000Y-98733105D01*
X42246819Y-98775562D01*
X42236226Y-98810481D01*
X42219024Y-98842663D01*
X42195873Y-98870873D01*
X42167663Y-98894024D01*
X42135481Y-98911226D01*
X42100562Y-98921819D01*
X42058105Y-98926000D01*
X40916895Y-98926000D01*
X40874438Y-98921819D01*
X40839519Y-98911226D01*
X40807337Y-98894024D01*
X40779127Y-98870873D01*
X40755976Y-98842663D01*
X40738774Y-98810481D01*
X40728181Y-98775562D01*
X40724000Y-98733105D01*
X40724000Y-97266895D01*
X40728181Y-97224438D01*
X40738774Y-97189519D01*
X40755976Y-97157337D01*
X40779127Y-97129127D01*
X40807337Y-97105976D01*
X40839519Y-97088774D01*
X40874438Y-97078181D01*
X40916895Y-97074000D01*
X42058105Y-97074000D01*
X42100562Y-97078181D01*
X42100562Y-97078181D01*
G37*
G36*
X39125562Y-97078181D02*
G01*
X39160481Y-97088774D01*
X39192663Y-97105976D01*
X39220873Y-97129127D01*
X39244024Y-97157337D01*
X39261226Y-97189519D01*
X39271819Y-97224438D01*
X39276000Y-97266895D01*
X39276000Y-98733105D01*
X39271819Y-98775562D01*
X39261226Y-98810481D01*
X39244024Y-98842663D01*
X39220873Y-98870873D01*
X39192663Y-98894024D01*
X39160481Y-98911226D01*
X39125562Y-98921819D01*
X39083105Y-98926000D01*
X37941895Y-98926000D01*
X37899438Y-98921819D01*
X37864519Y-98911226D01*
X37832337Y-98894024D01*
X37804127Y-98870873D01*
X37780976Y-98842663D01*
X37763774Y-98810481D01*
X37753181Y-98775562D01*
X37749000Y-98733105D01*
X37749000Y-97266895D01*
X37753181Y-97224438D01*
X37763774Y-97189519D01*
X37780976Y-97157337D01*
X37804127Y-97129127D01*
X37832337Y-97105976D01*
X37864519Y-97088774D01*
X37899438Y-97078181D01*
X37941895Y-97074000D01*
X39083105Y-97074000D01*
X39125562Y-97078181D01*
X39125562Y-97078181D01*
G37*
G36*
X61306564Y-92989389D02*
G01*
X61497833Y-93068615D01*
X61497835Y-93068616D01*
X61669973Y-93183635D01*
X61816365Y-93330027D01*
X61931385Y-93502167D01*
X62010611Y-93693436D01*
X62051000Y-93896484D01*
X62051000Y-94103516D01*
X62010611Y-94306564D01*
X61931385Y-94497833D01*
X61931384Y-94497835D01*
X61816365Y-94669973D01*
X61669973Y-94816365D01*
X61497835Y-94931384D01*
X61497834Y-94931385D01*
X61497833Y-94931385D01*
X61306564Y-95010611D01*
X61103516Y-95051000D01*
X60896484Y-95051000D01*
X60693436Y-95010611D01*
X60502167Y-94931385D01*
X60502166Y-94931385D01*
X60502165Y-94931384D01*
X60330027Y-94816365D01*
X60183635Y-94669973D01*
X60068616Y-94497835D01*
X60068615Y-94497833D01*
X59989389Y-94306564D01*
X59949000Y-94103516D01*
X59949000Y-93896484D01*
X59989389Y-93693436D01*
X60068615Y-93502167D01*
X60183635Y-93330027D01*
X60330027Y-93183635D01*
X60502165Y-93068616D01*
X60502167Y-93068615D01*
X60693436Y-92989389D01*
X60896484Y-92949000D01*
X61103516Y-92949000D01*
X61306564Y-92989389D01*
X61306564Y-92989389D01*
G37*
G36*
X32051000Y-94051000D02*
G01*
X29949000Y-94051000D01*
X29949000Y-91949000D01*
X32051000Y-91949000D01*
X32051000Y-94051000D01*
X32051000Y-94051000D01*
G37*
G36*
X59230411Y-88404259D02*
G01*
X59275853Y-88418044D01*
X59317736Y-88440431D01*
X59354444Y-88470556D01*
X59384569Y-88507264D01*
X59406956Y-88549147D01*
X59420741Y-88594589D01*
X59426000Y-88647990D01*
X59426000Y-90052010D01*
X59420741Y-90105411D01*
X59406956Y-90150853D01*
X59384569Y-90192736D01*
X59354444Y-90229444D01*
X59317736Y-90259569D01*
X59275853Y-90281956D01*
X59230411Y-90295741D01*
X59177010Y-90301000D01*
X57822990Y-90301000D01*
X57769589Y-90295741D01*
X57724147Y-90281956D01*
X57682264Y-90259569D01*
X57645556Y-90229444D01*
X57615431Y-90192736D01*
X57593044Y-90150853D01*
X57579259Y-90105411D01*
X57574000Y-90052010D01*
X57574000Y-88647990D01*
X57579259Y-88594589D01*
X57593044Y-88549147D01*
X57615431Y-88507264D01*
X57645556Y-88470556D01*
X57682264Y-88440431D01*
X57724147Y-88418044D01*
X57769589Y-88404259D01*
X57822990Y-88399000D01*
X59177010Y-88399000D01*
X59230411Y-88404259D01*
X59230411Y-88404259D01*
G37*
G36*
X34230411Y-87604259D02*
G01*
X34275853Y-87618044D01*
X34317736Y-87640431D01*
X34354444Y-87670556D01*
X34384569Y-87707264D01*
X34406956Y-87749147D01*
X34420741Y-87794589D01*
X34426000Y-87847990D01*
X34426000Y-89252010D01*
X34420741Y-89305411D01*
X34406956Y-89350853D01*
X34384569Y-89392736D01*
X34354444Y-89429444D01*
X34317736Y-89459569D01*
X34275853Y-89481956D01*
X34230411Y-89495741D01*
X34177010Y-89501000D01*
X32822990Y-89501000D01*
X32769589Y-89495741D01*
X32724147Y-89481956D01*
X32682264Y-89459569D01*
X32645556Y-89429444D01*
X32615431Y-89392736D01*
X32593044Y-89350853D01*
X32579259Y-89305411D01*
X32574000Y-89252010D01*
X32574000Y-87847990D01*
X32579259Y-87794589D01*
X32593044Y-87749147D01*
X32615431Y-87707264D01*
X32645556Y-87670556D01*
X32682264Y-87640431D01*
X32724147Y-87618044D01*
X32769589Y-87604259D01*
X32822990Y-87599000D01*
X34177010Y-87599000D01*
X34230411Y-87604259D01*
X34230411Y-87604259D01*
G37*
G36*
X31338674Y-87653465D02*
G01*
X31376367Y-87664899D01*
X31411103Y-87683466D01*
X31441548Y-87708452D01*
X31466534Y-87738897D01*
X31485101Y-87773633D01*
X31496535Y-87811326D01*
X31501000Y-87856661D01*
X31501000Y-88693339D01*
X31496535Y-88738674D01*
X31485101Y-88776367D01*
X31466534Y-88811103D01*
X31441548Y-88841548D01*
X31411103Y-88866534D01*
X31376367Y-88885101D01*
X31338674Y-88896535D01*
X31293339Y-88901000D01*
X30206661Y-88901000D01*
X30161326Y-88896535D01*
X30123633Y-88885101D01*
X30088897Y-88866534D01*
X30058452Y-88841548D01*
X30033466Y-88811103D01*
X30014899Y-88776367D01*
X30003465Y-88738674D01*
X29999000Y-88693339D01*
X29999000Y-87856661D01*
X30003465Y-87811326D01*
X30014899Y-87773633D01*
X30033466Y-87738897D01*
X30058452Y-87708452D01*
X30088897Y-87683466D01*
X30123633Y-87664899D01*
X30161326Y-87653465D01*
X30206661Y-87649000D01*
X31293339Y-87649000D01*
X31338674Y-87653465D01*
X31338674Y-87653465D01*
G37*
G36*
X20375562Y-86328181D02*
G01*
X20410481Y-86338774D01*
X20442663Y-86355976D01*
X20470873Y-86379127D01*
X20494024Y-86407337D01*
X20511226Y-86439519D01*
X20521819Y-86474438D01*
X20526000Y-86516895D01*
X20526000Y-87983105D01*
X20521819Y-88025562D01*
X20511226Y-88060481D01*
X20494024Y-88092663D01*
X20470873Y-88120873D01*
X20442663Y-88144024D01*
X20410481Y-88161226D01*
X20375562Y-88171819D01*
X20333105Y-88176000D01*
X19191895Y-88176000D01*
X19149438Y-88171819D01*
X19114519Y-88161226D01*
X19082337Y-88144024D01*
X19054127Y-88120873D01*
X19030976Y-88092663D01*
X19013774Y-88060481D01*
X19003181Y-88025562D01*
X18999000Y-87983105D01*
X18999000Y-86516895D01*
X19003181Y-86474438D01*
X19013774Y-86439519D01*
X19030976Y-86407337D01*
X19054127Y-86379127D01*
X19082337Y-86355976D01*
X19114519Y-86338774D01*
X19149438Y-86328181D01*
X19191895Y-86324000D01*
X20333105Y-86324000D01*
X20375562Y-86328181D01*
X20375562Y-86328181D01*
G37*
G36*
X23350562Y-86328181D02*
G01*
X23385481Y-86338774D01*
X23417663Y-86355976D01*
X23445873Y-86379127D01*
X23469024Y-86407337D01*
X23486226Y-86439519D01*
X23496819Y-86474438D01*
X23501000Y-86516895D01*
X23501000Y-87983105D01*
X23496819Y-88025562D01*
X23486226Y-88060481D01*
X23469024Y-88092663D01*
X23445873Y-88120873D01*
X23417663Y-88144024D01*
X23385481Y-88161226D01*
X23350562Y-88171819D01*
X23308105Y-88176000D01*
X22166895Y-88176000D01*
X22124438Y-88171819D01*
X22089519Y-88161226D01*
X22057337Y-88144024D01*
X22029127Y-88120873D01*
X22005976Y-88092663D01*
X21988774Y-88060481D01*
X21978181Y-88025562D01*
X21974000Y-87983105D01*
X21974000Y-86516895D01*
X21978181Y-86474438D01*
X21988774Y-86439519D01*
X22005976Y-86407337D01*
X22029127Y-86379127D01*
X22057337Y-86355976D01*
X22089519Y-86338774D01*
X22124438Y-86328181D01*
X22166895Y-86324000D01*
X23308105Y-86324000D01*
X23350562Y-86328181D01*
X23350562Y-86328181D01*
G37*
G36*
X59230411Y-85804259D02*
G01*
X59275853Y-85818044D01*
X59317736Y-85840431D01*
X59354444Y-85870556D01*
X59384569Y-85907264D01*
X59406956Y-85949147D01*
X59420741Y-85994589D01*
X59426000Y-86047990D01*
X59426000Y-87452010D01*
X59420741Y-87505411D01*
X59406956Y-87550853D01*
X59384569Y-87592736D01*
X59354444Y-87629444D01*
X59317736Y-87659569D01*
X59275853Y-87681956D01*
X59230411Y-87695741D01*
X59177010Y-87701000D01*
X57822990Y-87701000D01*
X57769589Y-87695741D01*
X57724147Y-87681956D01*
X57682264Y-87659569D01*
X57645556Y-87629444D01*
X57615431Y-87592736D01*
X57593044Y-87550853D01*
X57579259Y-87505411D01*
X57574000Y-87452010D01*
X57574000Y-86047990D01*
X57579259Y-85994589D01*
X57593044Y-85949147D01*
X57615431Y-85907264D01*
X57645556Y-85870556D01*
X57682264Y-85840431D01*
X57724147Y-85818044D01*
X57769589Y-85804259D01*
X57822990Y-85799000D01*
X59177010Y-85799000D01*
X59230411Y-85804259D01*
X59230411Y-85804259D01*
G37*
G36*
X29055411Y-85829259D02*
G01*
X29100853Y-85843044D01*
X29142736Y-85865431D01*
X29179444Y-85895556D01*
X29209569Y-85932264D01*
X29231956Y-85974147D01*
X29245741Y-86019589D01*
X29251000Y-86072990D01*
X29251000Y-87427010D01*
X29245741Y-87480411D01*
X29231956Y-87525853D01*
X29209569Y-87567736D01*
X29179444Y-87604444D01*
X29142736Y-87634569D01*
X29100853Y-87656956D01*
X29055411Y-87670741D01*
X29002010Y-87676000D01*
X27597990Y-87676000D01*
X27544589Y-87670741D01*
X27499147Y-87656956D01*
X27457264Y-87634569D01*
X27420556Y-87604444D01*
X27390431Y-87567736D01*
X27368044Y-87525853D01*
X27354259Y-87480411D01*
X27349000Y-87427010D01*
X27349000Y-86072990D01*
X27354259Y-86019589D01*
X27368044Y-85974147D01*
X27390431Y-85932264D01*
X27420556Y-85895556D01*
X27457264Y-85865431D01*
X27499147Y-85843044D01*
X27544589Y-85829259D01*
X27597990Y-85824000D01*
X29002010Y-85824000D01*
X29055411Y-85829259D01*
X29055411Y-85829259D01*
G37*
G36*
X26455411Y-85829259D02*
G01*
X26500853Y-85843044D01*
X26542736Y-85865431D01*
X26579444Y-85895556D01*
X26609569Y-85932264D01*
X26631956Y-85974147D01*
X26645741Y-86019589D01*
X26651000Y-86072990D01*
X26651000Y-87427010D01*
X26645741Y-87480411D01*
X26631956Y-87525853D01*
X26609569Y-87567736D01*
X26579444Y-87604444D01*
X26542736Y-87634569D01*
X26500853Y-87656956D01*
X26455411Y-87670741D01*
X26402010Y-87676000D01*
X24997990Y-87676000D01*
X24944589Y-87670741D01*
X24899147Y-87656956D01*
X24857264Y-87634569D01*
X24820556Y-87604444D01*
X24790431Y-87567736D01*
X24768044Y-87525853D01*
X24754259Y-87480411D01*
X24749000Y-87427010D01*
X24749000Y-86072990D01*
X24754259Y-86019589D01*
X24768044Y-85974147D01*
X24790431Y-85932264D01*
X24820556Y-85895556D01*
X24857264Y-85865431D01*
X24899147Y-85843044D01*
X24944589Y-85829259D01*
X24997990Y-85824000D01*
X26402010Y-85824000D01*
X26455411Y-85829259D01*
X26455411Y-85829259D01*
G37*
G36*
X69875562Y-85578181D02*
G01*
X69910481Y-85588774D01*
X69942663Y-85605976D01*
X69970873Y-85629127D01*
X69994024Y-85657337D01*
X70011226Y-85689519D01*
X70021819Y-85724438D01*
X70026000Y-85766895D01*
X70026000Y-87233105D01*
X70021819Y-87275562D01*
X70011226Y-87310481D01*
X69994024Y-87342663D01*
X69970873Y-87370873D01*
X69942663Y-87394024D01*
X69910481Y-87411226D01*
X69875562Y-87421819D01*
X69833105Y-87426000D01*
X68691895Y-87426000D01*
X68649438Y-87421819D01*
X68614519Y-87411226D01*
X68582337Y-87394024D01*
X68554127Y-87370873D01*
X68530976Y-87342663D01*
X68513774Y-87310481D01*
X68503181Y-87275562D01*
X68499000Y-87233105D01*
X68499000Y-85766895D01*
X68503181Y-85724438D01*
X68513774Y-85689519D01*
X68530976Y-85657337D01*
X68554127Y-85629127D01*
X68582337Y-85605976D01*
X68614519Y-85588774D01*
X68649438Y-85578181D01*
X68691895Y-85574000D01*
X69833105Y-85574000D01*
X69875562Y-85578181D01*
X69875562Y-85578181D01*
G37*
G36*
X72850562Y-85578181D02*
G01*
X72885481Y-85588774D01*
X72917663Y-85605976D01*
X72945873Y-85629127D01*
X72969024Y-85657337D01*
X72986226Y-85689519D01*
X72996819Y-85724438D01*
X73001000Y-85766895D01*
X73001000Y-87233105D01*
X72996819Y-87275562D01*
X72986226Y-87310481D01*
X72969024Y-87342663D01*
X72945873Y-87370873D01*
X72917663Y-87394024D01*
X72885481Y-87411226D01*
X72850562Y-87421819D01*
X72808105Y-87426000D01*
X71666895Y-87426000D01*
X71624438Y-87421819D01*
X71589519Y-87411226D01*
X71557337Y-87394024D01*
X71529127Y-87370873D01*
X71505976Y-87342663D01*
X71488774Y-87310481D01*
X71478181Y-87275562D01*
X71474000Y-87233105D01*
X71474000Y-85766895D01*
X71478181Y-85724438D01*
X71488774Y-85689519D01*
X71505976Y-85657337D01*
X71529127Y-85629127D01*
X71557337Y-85605976D01*
X71589519Y-85588774D01*
X71624438Y-85578181D01*
X71666895Y-85574000D01*
X72808105Y-85574000D01*
X72850562Y-85578181D01*
X72850562Y-85578181D01*
G37*
G36*
X61438674Y-85753465D02*
G01*
X61476367Y-85764899D01*
X61511103Y-85783466D01*
X61541548Y-85808452D01*
X61566534Y-85838897D01*
X61585101Y-85873633D01*
X61596535Y-85911326D01*
X61601000Y-85956661D01*
X61601000Y-87043339D01*
X61596535Y-87088674D01*
X61585101Y-87126367D01*
X61566534Y-87161103D01*
X61541548Y-87191548D01*
X61511103Y-87216534D01*
X61476367Y-87235101D01*
X61438674Y-87246535D01*
X61393339Y-87251000D01*
X60556661Y-87251000D01*
X60511326Y-87246535D01*
X60473633Y-87235101D01*
X60438897Y-87216534D01*
X60408452Y-87191548D01*
X60383466Y-87161103D01*
X60364899Y-87126367D01*
X60353465Y-87088674D01*
X60349000Y-87043339D01*
X60349000Y-85956661D01*
X60353465Y-85911326D01*
X60364899Y-85873633D01*
X60383466Y-85838897D01*
X60408452Y-85808452D01*
X60438897Y-85783466D01*
X60473633Y-85764899D01*
X60511326Y-85753465D01*
X60556661Y-85749000D01*
X61393339Y-85749000D01*
X61438674Y-85753465D01*
X61438674Y-85753465D01*
G37*
G36*
X67488674Y-85753465D02*
G01*
X67526367Y-85764899D01*
X67561103Y-85783466D01*
X67591548Y-85808452D01*
X67616534Y-85838897D01*
X67635101Y-85873633D01*
X67646535Y-85911326D01*
X67651000Y-85956661D01*
X67651000Y-87043339D01*
X67646535Y-87088674D01*
X67635101Y-87126367D01*
X67616534Y-87161103D01*
X67591548Y-87191548D01*
X67561103Y-87216534D01*
X67526367Y-87235101D01*
X67488674Y-87246535D01*
X67443339Y-87251000D01*
X66606661Y-87251000D01*
X66561326Y-87246535D01*
X66523633Y-87235101D01*
X66488897Y-87216534D01*
X66458452Y-87191548D01*
X66433466Y-87161103D01*
X66414899Y-87126367D01*
X66403465Y-87088674D01*
X66399000Y-87043339D01*
X66399000Y-85956661D01*
X66403465Y-85911326D01*
X66414899Y-85873633D01*
X66433466Y-85838897D01*
X66458452Y-85808452D01*
X66488897Y-85783466D01*
X66523633Y-85764899D01*
X66561326Y-85753465D01*
X66606661Y-85749000D01*
X67443339Y-85749000D01*
X67488674Y-85753465D01*
X67488674Y-85753465D01*
G37*
G36*
X65438674Y-85753465D02*
G01*
X65476367Y-85764899D01*
X65511103Y-85783466D01*
X65541548Y-85808452D01*
X65566534Y-85838897D01*
X65585101Y-85873633D01*
X65596535Y-85911326D01*
X65601000Y-85956661D01*
X65601000Y-87043339D01*
X65596535Y-87088674D01*
X65585101Y-87126367D01*
X65566534Y-87161103D01*
X65541548Y-87191548D01*
X65511103Y-87216534D01*
X65476367Y-87235101D01*
X65438674Y-87246535D01*
X65393339Y-87251000D01*
X64556661Y-87251000D01*
X64511326Y-87246535D01*
X64473633Y-87235101D01*
X64438897Y-87216534D01*
X64408452Y-87191548D01*
X64383466Y-87161103D01*
X64364899Y-87126367D01*
X64353465Y-87088674D01*
X64349000Y-87043339D01*
X64349000Y-85956661D01*
X64353465Y-85911326D01*
X64364899Y-85873633D01*
X64383466Y-85838897D01*
X64408452Y-85808452D01*
X64438897Y-85783466D01*
X64473633Y-85764899D01*
X64511326Y-85753465D01*
X64556661Y-85749000D01*
X65393339Y-85749000D01*
X65438674Y-85753465D01*
X65438674Y-85753465D01*
G37*
G36*
X63488674Y-85753465D02*
G01*
X63526367Y-85764899D01*
X63561103Y-85783466D01*
X63591548Y-85808452D01*
X63616534Y-85838897D01*
X63635101Y-85873633D01*
X63646535Y-85911326D01*
X63651000Y-85956661D01*
X63651000Y-87043339D01*
X63646535Y-87088674D01*
X63635101Y-87126367D01*
X63616534Y-87161103D01*
X63591548Y-87191548D01*
X63561103Y-87216534D01*
X63526367Y-87235101D01*
X63488674Y-87246535D01*
X63443339Y-87251000D01*
X62606661Y-87251000D01*
X62561326Y-87246535D01*
X62523633Y-87235101D01*
X62488897Y-87216534D01*
X62458452Y-87191548D01*
X62433466Y-87161103D01*
X62414899Y-87126367D01*
X62403465Y-87088674D01*
X62399000Y-87043339D01*
X62399000Y-85956661D01*
X62403465Y-85911326D01*
X62414899Y-85873633D01*
X62433466Y-85838897D01*
X62458452Y-85808452D01*
X62488897Y-85783466D01*
X62523633Y-85764899D01*
X62561326Y-85753465D01*
X62606661Y-85749000D01*
X63443339Y-85749000D01*
X63488674Y-85753465D01*
X63488674Y-85753465D01*
G37*
G36*
X34230411Y-85004259D02*
G01*
X34275853Y-85018044D01*
X34317736Y-85040431D01*
X34354444Y-85070556D01*
X34384569Y-85107264D01*
X34406956Y-85149147D01*
X34420741Y-85194589D01*
X34426000Y-85247990D01*
X34426000Y-86652010D01*
X34420741Y-86705411D01*
X34406956Y-86750853D01*
X34384569Y-86792736D01*
X34354444Y-86829444D01*
X34317736Y-86859569D01*
X34275853Y-86881956D01*
X34230411Y-86895741D01*
X34177010Y-86901000D01*
X32822990Y-86901000D01*
X32769589Y-86895741D01*
X32724147Y-86881956D01*
X32682264Y-86859569D01*
X32645556Y-86829444D01*
X32615431Y-86792736D01*
X32593044Y-86750853D01*
X32579259Y-86705411D01*
X32574000Y-86652010D01*
X32574000Y-85247990D01*
X32579259Y-85194589D01*
X32593044Y-85149147D01*
X32615431Y-85107264D01*
X32645556Y-85070556D01*
X32682264Y-85040431D01*
X32724147Y-85018044D01*
X32769589Y-85004259D01*
X32822990Y-84999000D01*
X34177010Y-84999000D01*
X34230411Y-85004259D01*
X34230411Y-85004259D01*
G37*
G36*
X31338674Y-85603465D02*
G01*
X31376367Y-85614899D01*
X31411103Y-85633466D01*
X31441548Y-85658452D01*
X31466534Y-85688897D01*
X31485101Y-85723633D01*
X31496535Y-85761326D01*
X31501000Y-85806661D01*
X31501000Y-86643339D01*
X31496535Y-86688674D01*
X31485101Y-86726367D01*
X31466534Y-86761103D01*
X31441548Y-86791548D01*
X31411103Y-86816534D01*
X31376367Y-86835101D01*
X31338674Y-86846535D01*
X31293339Y-86851000D01*
X30206661Y-86851000D01*
X30161326Y-86846535D01*
X30123633Y-86835101D01*
X30088897Y-86816534D01*
X30058452Y-86791548D01*
X30033466Y-86761103D01*
X30014899Y-86726367D01*
X30003465Y-86688674D01*
X29999000Y-86643339D01*
X29999000Y-85806661D01*
X30003465Y-85761326D01*
X30014899Y-85723633D01*
X30033466Y-85688897D01*
X30058452Y-85658452D01*
X30088897Y-85633466D01*
X30123633Y-85614899D01*
X30161326Y-85603465D01*
X30206661Y-85599000D01*
X31293339Y-85599000D01*
X31338674Y-85603465D01*
X31338674Y-85603465D01*
G37*
G36*
X41051000Y-86801000D02*
G01*
X38949000Y-86801000D01*
X38949000Y-84699000D01*
X41051000Y-84699000D01*
X41051000Y-86801000D01*
X41051000Y-86801000D01*
G37*
G36*
X51306564Y-84489389D02*
G01*
X51497833Y-84568615D01*
X51497835Y-84568616D01*
X51669973Y-84683635D01*
X51816365Y-84830027D01*
X51931385Y-85002167D01*
X52010611Y-85193436D01*
X52051000Y-85396484D01*
X52051000Y-85603516D01*
X52010611Y-85806564D01*
X51943711Y-85968075D01*
X51931384Y-85997835D01*
X51816365Y-86169973D01*
X51669973Y-86316365D01*
X51497835Y-86431384D01*
X51497834Y-86431385D01*
X51497833Y-86431385D01*
X51306564Y-86510611D01*
X51103516Y-86551000D01*
X50896484Y-86551000D01*
X50693436Y-86510611D01*
X50502167Y-86431385D01*
X50502166Y-86431385D01*
X50502165Y-86431384D01*
X50330027Y-86316365D01*
X50183635Y-86169973D01*
X50068616Y-85997835D01*
X50056289Y-85968075D01*
X49989389Y-85806564D01*
X49949000Y-85603516D01*
X49949000Y-85396484D01*
X49989389Y-85193436D01*
X50068615Y-85002167D01*
X50183635Y-84830027D01*
X50330027Y-84683635D01*
X50502165Y-84568616D01*
X50502167Y-84568615D01*
X50693436Y-84489389D01*
X50896484Y-84449000D01*
X51103516Y-84449000D01*
X51306564Y-84489389D01*
X51306564Y-84489389D01*
G37*
G36*
X66305411Y-83329259D02*
G01*
X66350853Y-83343044D01*
X66392736Y-83365431D01*
X66429444Y-83395556D01*
X66459569Y-83432264D01*
X66481956Y-83474147D01*
X66495741Y-83519589D01*
X66501000Y-83572990D01*
X66501000Y-84927010D01*
X66495741Y-84980411D01*
X66481956Y-85025853D01*
X66459569Y-85067736D01*
X66429444Y-85104444D01*
X66392736Y-85134569D01*
X66350853Y-85156956D01*
X66305411Y-85170741D01*
X66252010Y-85176000D01*
X64847990Y-85176000D01*
X64794589Y-85170741D01*
X64749147Y-85156956D01*
X64707264Y-85134569D01*
X64670556Y-85104444D01*
X64640431Y-85067736D01*
X64618044Y-85025853D01*
X64604259Y-84980411D01*
X64599000Y-84927010D01*
X64599000Y-83572990D01*
X64604259Y-83519589D01*
X64618044Y-83474147D01*
X64640431Y-83432264D01*
X64670556Y-83395556D01*
X64707264Y-83365431D01*
X64749147Y-83343044D01*
X64794589Y-83329259D01*
X64847990Y-83324000D01*
X66252010Y-83324000D01*
X66305411Y-83329259D01*
X66305411Y-83329259D01*
G37*
G36*
X63705411Y-83329259D02*
G01*
X63750853Y-83343044D01*
X63792736Y-83365431D01*
X63829444Y-83395556D01*
X63859569Y-83432264D01*
X63881956Y-83474147D01*
X63895741Y-83519589D01*
X63901000Y-83572990D01*
X63901000Y-84927010D01*
X63895741Y-84980411D01*
X63881956Y-85025853D01*
X63859569Y-85067736D01*
X63829444Y-85104444D01*
X63792736Y-85134569D01*
X63750853Y-85156956D01*
X63705411Y-85170741D01*
X63652010Y-85176000D01*
X62247990Y-85176000D01*
X62194589Y-85170741D01*
X62149147Y-85156956D01*
X62107264Y-85134569D01*
X62070556Y-85104444D01*
X62040431Y-85067736D01*
X62018044Y-85025853D01*
X62004259Y-84980411D01*
X61999000Y-84927010D01*
X61999000Y-83572990D01*
X62004259Y-83519589D01*
X62018044Y-83474147D01*
X62040431Y-83432264D01*
X62070556Y-83395556D01*
X62107264Y-83365431D01*
X62149147Y-83343044D01*
X62194589Y-83329259D01*
X62247990Y-83324000D01*
X63652010Y-83324000D01*
X63705411Y-83329259D01*
X63705411Y-83329259D01*
G37*
G36*
X29225500Y-84151000D02*
G01*
X27698500Y-84151000D01*
X27698500Y-80349000D01*
X29225500Y-80349000D01*
X29225500Y-84151000D01*
X29225500Y-84151000D01*
G37*
G36*
X24801500Y-84151000D02*
G01*
X23274500Y-84151000D01*
X23274500Y-80349000D01*
X24801500Y-80349000D01*
X24801500Y-84151000D01*
X24801500Y-84151000D01*
G37*
G36*
X27177500Y-83774500D02*
G01*
X25322500Y-83774500D01*
X25322500Y-80725500D01*
X27177500Y-80725500D01*
X27177500Y-83774500D01*
X27177500Y-83774500D01*
G37*
G36*
X32525562Y-82228181D02*
G01*
X32560481Y-82238774D01*
X32592663Y-82255976D01*
X32620873Y-82279127D01*
X32644024Y-82307337D01*
X32661226Y-82339519D01*
X32671819Y-82374438D01*
X32676000Y-82416895D01*
X32676000Y-83558105D01*
X32671819Y-83600562D01*
X32661226Y-83635481D01*
X32644024Y-83667663D01*
X32620873Y-83695873D01*
X32592663Y-83719024D01*
X32560481Y-83736226D01*
X32525562Y-83746819D01*
X32483105Y-83751000D01*
X31016895Y-83751000D01*
X30974438Y-83746819D01*
X30939519Y-83736226D01*
X30907337Y-83719024D01*
X30879127Y-83695873D01*
X30855976Y-83667663D01*
X30838774Y-83635481D01*
X30828181Y-83600562D01*
X30824000Y-83558105D01*
X30824000Y-82416895D01*
X30828181Y-82374438D01*
X30838774Y-82339519D01*
X30855976Y-82307337D01*
X30879127Y-82279127D01*
X30907337Y-82255976D01*
X30939519Y-82238774D01*
X30974438Y-82228181D01*
X31016895Y-82224000D01*
X32483105Y-82224000D01*
X32525562Y-82228181D01*
X32525562Y-82228181D01*
G37*
G36*
X20838674Y-82403465D02*
G01*
X20876367Y-82414899D01*
X20911103Y-82433466D01*
X20941548Y-82458452D01*
X20966534Y-82488897D01*
X20985101Y-82523633D01*
X20996535Y-82561326D01*
X21001000Y-82606661D01*
X21001000Y-83443339D01*
X20996535Y-83488674D01*
X20985101Y-83526367D01*
X20966534Y-83561103D01*
X20941548Y-83591548D01*
X20911103Y-83616534D01*
X20876367Y-83635101D01*
X20838674Y-83646535D01*
X20793339Y-83651000D01*
X19706661Y-83651000D01*
X19661326Y-83646535D01*
X19623633Y-83635101D01*
X19588897Y-83616534D01*
X19558452Y-83591548D01*
X19533466Y-83561103D01*
X19514899Y-83526367D01*
X19503465Y-83488674D01*
X19499000Y-83443339D01*
X19499000Y-82606661D01*
X19503465Y-82561326D01*
X19514899Y-82523633D01*
X19533466Y-82488897D01*
X19558452Y-82458452D01*
X19588897Y-82433466D01*
X19623633Y-82414899D01*
X19661326Y-82403465D01*
X19706661Y-82399000D01*
X20793339Y-82399000D01*
X20838674Y-82403465D01*
X20838674Y-82403465D01*
G37*
G36*
X60775562Y-81728181D02*
G01*
X60810481Y-81738774D01*
X60842663Y-81755976D01*
X60870873Y-81779127D01*
X60894024Y-81807337D01*
X60911226Y-81839519D01*
X60921819Y-81874438D01*
X60926000Y-81916895D01*
X60926000Y-83058105D01*
X60921819Y-83100562D01*
X60911226Y-83135481D01*
X60894024Y-83167663D01*
X60870873Y-83195873D01*
X60842663Y-83219024D01*
X60810481Y-83236226D01*
X60775562Y-83246819D01*
X60733105Y-83251000D01*
X59266895Y-83251000D01*
X59224438Y-83246819D01*
X59189519Y-83236226D01*
X59157337Y-83219024D01*
X59129127Y-83195873D01*
X59105976Y-83167663D01*
X59088774Y-83135481D01*
X59078181Y-83100562D01*
X59074000Y-83058105D01*
X59074000Y-81916895D01*
X59078181Y-81874438D01*
X59088774Y-81839519D01*
X59105976Y-81807337D01*
X59129127Y-81779127D01*
X59157337Y-81755976D01*
X59189519Y-81738774D01*
X59224438Y-81728181D01*
X59266895Y-81724000D01*
X60733105Y-81724000D01*
X60775562Y-81728181D01*
X60775562Y-81728181D01*
G37*
G36*
X70588674Y-81403465D02*
G01*
X70626367Y-81414899D01*
X70661103Y-81433466D01*
X70691548Y-81458452D01*
X70716534Y-81488897D01*
X70735101Y-81523633D01*
X70746535Y-81561326D01*
X70751000Y-81606661D01*
X70751000Y-82443339D01*
X70746535Y-82488674D01*
X70735101Y-82526367D01*
X70716534Y-82561103D01*
X70691548Y-82591548D01*
X70661103Y-82616534D01*
X70626367Y-82635101D01*
X70588674Y-82646535D01*
X70543339Y-82651000D01*
X69456661Y-82651000D01*
X69411326Y-82646535D01*
X69373633Y-82635101D01*
X69338897Y-82616534D01*
X69308452Y-82591548D01*
X69283466Y-82561103D01*
X69264899Y-82526367D01*
X69253465Y-82488674D01*
X69249000Y-82443339D01*
X69249000Y-81606661D01*
X69253465Y-81561326D01*
X69264899Y-81523633D01*
X69283466Y-81488897D01*
X69308452Y-81458452D01*
X69338897Y-81433466D01*
X69373633Y-81414899D01*
X69411326Y-81403465D01*
X69456661Y-81399000D01*
X70543339Y-81399000D01*
X70588674Y-81403465D01*
X70588674Y-81403465D01*
G37*
G36*
X63801500Y-82251000D02*
G01*
X62274500Y-82251000D01*
X62274500Y-79749000D01*
X63801500Y-79749000D01*
X63801500Y-82251000D01*
X63801500Y-82251000D01*
G37*
G36*
X68225500Y-82251000D02*
G01*
X66698500Y-82251000D01*
X66698500Y-79749000D01*
X68225500Y-79749000D01*
X68225500Y-82251000D01*
X68225500Y-82251000D01*
G37*
G36*
X66141000Y-81991000D02*
G01*
X64359000Y-81991000D01*
X64359000Y-80009000D01*
X66141000Y-80009000D01*
X66141000Y-81991000D01*
X66141000Y-81991000D01*
G37*
G36*
X40306564Y-79739389D02*
G01*
X40497833Y-79818615D01*
X40497835Y-79818616D01*
X40669973Y-79933635D01*
X40816365Y-80080027D01*
X40846791Y-80125562D01*
X40931385Y-80252167D01*
X41010611Y-80443436D01*
X41051000Y-80646484D01*
X41051000Y-80853516D01*
X41010611Y-81056564D01*
X40931385Y-81247833D01*
X40931384Y-81247835D01*
X40816365Y-81419973D01*
X40669973Y-81566365D01*
X40497835Y-81681384D01*
X40497834Y-81681385D01*
X40497833Y-81681385D01*
X40306564Y-81760611D01*
X40103516Y-81801000D01*
X39896484Y-81801000D01*
X39693436Y-81760611D01*
X39502167Y-81681385D01*
X39502166Y-81681385D01*
X39502165Y-81681384D01*
X39330027Y-81566365D01*
X39183635Y-81419973D01*
X39068616Y-81247835D01*
X39068615Y-81247833D01*
X38989389Y-81056564D01*
X38949000Y-80853516D01*
X38949000Y-80646484D01*
X38989389Y-80443436D01*
X39068615Y-80252167D01*
X39153210Y-80125562D01*
X39183635Y-80080027D01*
X39330027Y-79933635D01*
X39502165Y-79818616D01*
X39502167Y-79818615D01*
X39693436Y-79739389D01*
X39896484Y-79699000D01*
X40103516Y-79699000D01*
X40306564Y-79739389D01*
X40306564Y-79739389D01*
G37*
G36*
X20838674Y-80353465D02*
G01*
X20876367Y-80364899D01*
X20911103Y-80383466D01*
X20941548Y-80408452D01*
X20966534Y-80438897D01*
X20985101Y-80473633D01*
X20996535Y-80511326D01*
X21001000Y-80556661D01*
X21001000Y-81393339D01*
X20996535Y-81438674D01*
X20985101Y-81476367D01*
X20966534Y-81511103D01*
X20941548Y-81541548D01*
X20911103Y-81566534D01*
X20876367Y-81585101D01*
X20838674Y-81596535D01*
X20793339Y-81601000D01*
X19706661Y-81601000D01*
X19661326Y-81596535D01*
X19623633Y-81585101D01*
X19588897Y-81566534D01*
X19558452Y-81541548D01*
X19533466Y-81511103D01*
X19514899Y-81476367D01*
X19503465Y-81438674D01*
X19499000Y-81393339D01*
X19499000Y-80556661D01*
X19503465Y-80511326D01*
X19514899Y-80473633D01*
X19533466Y-80438897D01*
X19558452Y-80408452D01*
X19588897Y-80383466D01*
X19623633Y-80364899D01*
X19661326Y-80353465D01*
X19706661Y-80349000D01*
X20793339Y-80349000D01*
X20838674Y-80353465D01*
X20838674Y-80353465D01*
G37*
G36*
X52051000Y-81551000D02*
G01*
X49949000Y-81551000D01*
X49949000Y-79449000D01*
X52051000Y-79449000D01*
X52051000Y-81551000D01*
X52051000Y-81551000D01*
G37*
G36*
X32525562Y-79253181D02*
G01*
X32560481Y-79263774D01*
X32592663Y-79280976D01*
X32620873Y-79304127D01*
X32644024Y-79332337D01*
X32661226Y-79364519D01*
X32671819Y-79399438D01*
X32676000Y-79441895D01*
X32676000Y-80583105D01*
X32671819Y-80625562D01*
X32661226Y-80660481D01*
X32644024Y-80692663D01*
X32620873Y-80720873D01*
X32592663Y-80744024D01*
X32560481Y-80761226D01*
X32525562Y-80771819D01*
X32483105Y-80776000D01*
X31016895Y-80776000D01*
X30974438Y-80771819D01*
X30939519Y-80761226D01*
X30907337Y-80744024D01*
X30879127Y-80720873D01*
X30855976Y-80692663D01*
X30838774Y-80660481D01*
X30828181Y-80625562D01*
X30824000Y-80583105D01*
X30824000Y-79441895D01*
X30828181Y-79399438D01*
X30838774Y-79364519D01*
X30855976Y-79332337D01*
X30879127Y-79304127D01*
X30907337Y-79280976D01*
X30939519Y-79263774D01*
X30974438Y-79253181D01*
X31016895Y-79249000D01*
X32483105Y-79249000D01*
X32525562Y-79253181D01*
X32525562Y-79253181D01*
G37*
G36*
X70588674Y-79353465D02*
G01*
X70626367Y-79364899D01*
X70661103Y-79383466D01*
X70691548Y-79408452D01*
X70716534Y-79438897D01*
X70735101Y-79473633D01*
X70746535Y-79511326D01*
X70751000Y-79556661D01*
X70751000Y-80393339D01*
X70746535Y-80438674D01*
X70735101Y-80476367D01*
X70716534Y-80511103D01*
X70691548Y-80541548D01*
X70661103Y-80566534D01*
X70626367Y-80585101D01*
X70588674Y-80596535D01*
X70543339Y-80601000D01*
X69456661Y-80601000D01*
X69411326Y-80596535D01*
X69373633Y-80585101D01*
X69338897Y-80566534D01*
X69308452Y-80541548D01*
X69283466Y-80511103D01*
X69264899Y-80476367D01*
X69253465Y-80438674D01*
X69249000Y-80393339D01*
X69249000Y-79556661D01*
X69253465Y-79511326D01*
X69264899Y-79473633D01*
X69283466Y-79438897D01*
X69308452Y-79408452D01*
X69338897Y-79383466D01*
X69373633Y-79364899D01*
X69411326Y-79353465D01*
X69456661Y-79349000D01*
X70543339Y-79349000D01*
X70588674Y-79353465D01*
X70588674Y-79353465D01*
G37*
G36*
X60775562Y-78753181D02*
G01*
X60810481Y-78763774D01*
X60842663Y-78780976D01*
X60870873Y-78804127D01*
X60894024Y-78832337D01*
X60911226Y-78864519D01*
X60921819Y-78899438D01*
X60926000Y-78941895D01*
X60926000Y-80083105D01*
X60921819Y-80125562D01*
X60911226Y-80160481D01*
X60894024Y-80192663D01*
X60870873Y-80220873D01*
X60842663Y-80244024D01*
X60810481Y-80261226D01*
X60775562Y-80271819D01*
X60733105Y-80276000D01*
X59266895Y-80276000D01*
X59224438Y-80271819D01*
X59189519Y-80261226D01*
X59157337Y-80244024D01*
X59129127Y-80220873D01*
X59105976Y-80192663D01*
X59088774Y-80160481D01*
X59078181Y-80125562D01*
X59074000Y-80083105D01*
X59074000Y-78941895D01*
X59078181Y-78899438D01*
X59088774Y-78864519D01*
X59105976Y-78832337D01*
X59129127Y-78804127D01*
X59157337Y-78780976D01*
X59189519Y-78763774D01*
X59224438Y-78753181D01*
X59266895Y-78749000D01*
X60733105Y-78749000D01*
X60775562Y-78753181D01*
X60775562Y-78753181D01*
G37*
G36*
X32690443Y-71105519D02*
G01*
X32756627Y-71112037D01*
X32926466Y-71163557D01*
X33082991Y-71247222D01*
X33118729Y-71276552D01*
X33220186Y-71359814D01*
X33303448Y-71461271D01*
X33332778Y-71497009D01*
X33416443Y-71653534D01*
X33467963Y-71823373D01*
X33485359Y-72000000D01*
X33467963Y-72176627D01*
X33416443Y-72346466D01*
X33332778Y-72502991D01*
X33303448Y-72538729D01*
X33220186Y-72640186D01*
X33118729Y-72723448D01*
X33082991Y-72752778D01*
X32926466Y-72836443D01*
X32756627Y-72887963D01*
X32690443Y-72894481D01*
X32624260Y-72901000D01*
X32535740Y-72901000D01*
X32469557Y-72894481D01*
X32403373Y-72887963D01*
X32233534Y-72836443D01*
X32077009Y-72752778D01*
X32041271Y-72723448D01*
X31939814Y-72640186D01*
X31856552Y-72538729D01*
X31827222Y-72502991D01*
X31743557Y-72346466D01*
X31692037Y-72176627D01*
X31674641Y-72000000D01*
X31692037Y-71823373D01*
X31743557Y-71653534D01*
X31827222Y-71497009D01*
X31856552Y-71461271D01*
X31939814Y-71359814D01*
X32041271Y-71276552D01*
X32077009Y-71247222D01*
X32233534Y-71163557D01*
X32403373Y-71112037D01*
X32469557Y-71105519D01*
X32535740Y-71099000D01*
X32624260Y-71099000D01*
X32690443Y-71105519D01*
X32690443Y-71105519D01*
G37*
G36*
X30150443Y-71105519D02*
G01*
X30216627Y-71112037D01*
X30386466Y-71163557D01*
X30542991Y-71247222D01*
X30578729Y-71276552D01*
X30680186Y-71359814D01*
X30763448Y-71461271D01*
X30792778Y-71497009D01*
X30876443Y-71653534D01*
X30927963Y-71823373D01*
X30945359Y-72000000D01*
X30927963Y-72176627D01*
X30876443Y-72346466D01*
X30792778Y-72502991D01*
X30763448Y-72538729D01*
X30680186Y-72640186D01*
X30578729Y-72723448D01*
X30542991Y-72752778D01*
X30386466Y-72836443D01*
X30216627Y-72887963D01*
X30150443Y-72894481D01*
X30084260Y-72901000D01*
X29995740Y-72901000D01*
X29929557Y-72894481D01*
X29863373Y-72887963D01*
X29693534Y-72836443D01*
X29537009Y-72752778D01*
X29501271Y-72723448D01*
X29399814Y-72640186D01*
X29316552Y-72538729D01*
X29287222Y-72502991D01*
X29203557Y-72346466D01*
X29152037Y-72176627D01*
X29134641Y-72000000D01*
X29152037Y-71823373D01*
X29203557Y-71653534D01*
X29287222Y-71497009D01*
X29316552Y-71461271D01*
X29399814Y-71359814D01*
X29501271Y-71276552D01*
X29537009Y-71247222D01*
X29693534Y-71163557D01*
X29863373Y-71112037D01*
X29929557Y-71105519D01*
X29995740Y-71099000D01*
X30084260Y-71099000D01*
X30150443Y-71105519D01*
X30150443Y-71105519D01*
G37*
G36*
X28401000Y-72901000D02*
G01*
X26599000Y-72901000D01*
X26599000Y-71099000D01*
X28401000Y-71099000D01*
X28401000Y-72901000D01*
X28401000Y-72901000D01*
G37*
G36*
X36466823Y-70161313D02*
G01*
X36627242Y-70209976D01*
X36694361Y-70245852D01*
X36775078Y-70288996D01*
X36904659Y-70395341D01*
X37011004Y-70524922D01*
X37011005Y-70524924D01*
X37090024Y-70672758D01*
X37138687Y-70833177D01*
X37155117Y-71000000D01*
X37138687Y-71166823D01*
X37090024Y-71327242D01*
X37049477Y-71403100D01*
X37011004Y-71475078D01*
X36904659Y-71604659D01*
X36775078Y-71711004D01*
X36775076Y-71711005D01*
X36627242Y-71790024D01*
X36466823Y-71838687D01*
X36341804Y-71851000D01*
X36258196Y-71851000D01*
X36133177Y-71838687D01*
X35972758Y-71790024D01*
X35824924Y-71711005D01*
X35824922Y-71711004D01*
X35695341Y-71604659D01*
X35588996Y-71475078D01*
X35550523Y-71403100D01*
X35509976Y-71327242D01*
X35461313Y-71166823D01*
X35444883Y-71000000D01*
X35461313Y-70833177D01*
X35509976Y-70672758D01*
X35588995Y-70524924D01*
X35588996Y-70524922D01*
X35695341Y-70395341D01*
X35824922Y-70288996D01*
X35905639Y-70245852D01*
X35972758Y-70209976D01*
X36133177Y-70161313D01*
X36258196Y-70149000D01*
X36341804Y-70149000D01*
X36466823Y-70161313D01*
X36466823Y-70161313D01*
G37*
G36*
X49248228Y-70181703D02*
G01*
X49403100Y-70245853D01*
X49542481Y-70338985D01*
X49661015Y-70457519D01*
X49754147Y-70596900D01*
X49818297Y-70751772D01*
X49851000Y-70916184D01*
X49851000Y-71083816D01*
X49818297Y-71248228D01*
X49754147Y-71403100D01*
X49661015Y-71542481D01*
X49542481Y-71661015D01*
X49403100Y-71754147D01*
X49248228Y-71818297D01*
X49083816Y-71851000D01*
X48916184Y-71851000D01*
X48751772Y-71818297D01*
X48596900Y-71754147D01*
X48457519Y-71661015D01*
X48338985Y-71542481D01*
X48245853Y-71403100D01*
X48181703Y-71248228D01*
X48149000Y-71083816D01*
X48149000Y-70916184D01*
X48181703Y-70751772D01*
X48245853Y-70596900D01*
X48338985Y-70457519D01*
X48457519Y-70338985D01*
X48596900Y-70245853D01*
X48751772Y-70181703D01*
X48916184Y-70149000D01*
X49083816Y-70149000D01*
X49248228Y-70181703D01*
X49248228Y-70181703D01*
G37*
G36*
X27730411Y-67604259D02*
G01*
X27775853Y-67618044D01*
X27817736Y-67640431D01*
X27854444Y-67670556D01*
X27884569Y-67707264D01*
X27906956Y-67749147D01*
X27920741Y-67794589D01*
X27926000Y-67847990D01*
X27926000Y-69252010D01*
X27920741Y-69305411D01*
X27906956Y-69350853D01*
X27884569Y-69392736D01*
X27854444Y-69429444D01*
X27817736Y-69459569D01*
X27775853Y-69481956D01*
X27730411Y-69495741D01*
X27677010Y-69501000D01*
X26322990Y-69501000D01*
X26269589Y-69495741D01*
X26224147Y-69481956D01*
X26182264Y-69459569D01*
X26145556Y-69429444D01*
X26115431Y-69392736D01*
X26093044Y-69350853D01*
X26079259Y-69305411D01*
X26074000Y-69252010D01*
X26074000Y-67847990D01*
X26079259Y-67794589D01*
X26093044Y-67749147D01*
X26115431Y-67707264D01*
X26145556Y-67670556D01*
X26182264Y-67640431D01*
X26224147Y-67618044D01*
X26269589Y-67604259D01*
X26322990Y-67599000D01*
X27677010Y-67599000D01*
X27730411Y-67604259D01*
X27730411Y-67604259D01*
G37*
G36*
X30451000Y-68501000D02*
G01*
X29549000Y-68501000D01*
X29549000Y-67499000D01*
X30451000Y-67499000D01*
X30451000Y-68501000D01*
X30451000Y-68501000D01*
G37*
G36*
X74302585Y-65308802D02*
G01*
X74452410Y-65338604D01*
X74734674Y-65455521D01*
X74988705Y-65625259D01*
X75204741Y-65841295D01*
X75374479Y-66095326D01*
X75454699Y-66288996D01*
X75491396Y-66377591D01*
X75550109Y-66672758D01*
X75551000Y-66677240D01*
X75551000Y-66982760D01*
X75491396Y-67282410D01*
X75374479Y-67564674D01*
X75204741Y-67818705D01*
X74988705Y-68034741D01*
X74734674Y-68204479D01*
X74452410Y-68321396D01*
X74302585Y-68351198D01*
X74152761Y-68381000D01*
X73847239Y-68381000D01*
X73697415Y-68351198D01*
X73547590Y-68321396D01*
X73265326Y-68204479D01*
X73011295Y-68034741D01*
X72795259Y-67818705D01*
X72625521Y-67564674D01*
X72508604Y-67282410D01*
X72449000Y-66982760D01*
X72449000Y-66677240D01*
X72449892Y-66672758D01*
X72508604Y-66377591D01*
X72545301Y-66288996D01*
X72625521Y-66095326D01*
X72795259Y-65841295D01*
X73011295Y-65625259D01*
X73265326Y-65455521D01*
X73547590Y-65338604D01*
X73697415Y-65308802D01*
X73847239Y-65279000D01*
X74152761Y-65279000D01*
X74302585Y-65308802D01*
X74302585Y-65308802D01*
G37*
G36*
X63666823Y-66611313D02*
G01*
X63827242Y-66659976D01*
X63959906Y-66730886D01*
X63975078Y-66738996D01*
X64104659Y-66845341D01*
X64211004Y-66974922D01*
X64211005Y-66974924D01*
X64290024Y-67122758D01*
X64338687Y-67283177D01*
X64355117Y-67450000D01*
X64338687Y-67616823D01*
X64290024Y-67777242D01*
X64257181Y-67838686D01*
X64211004Y-67925078D01*
X64104659Y-68054659D01*
X63975078Y-68161004D01*
X63975076Y-68161005D01*
X63827242Y-68240024D01*
X63666823Y-68288687D01*
X63541804Y-68301000D01*
X63458196Y-68301000D01*
X63333177Y-68288687D01*
X63172758Y-68240024D01*
X63024924Y-68161005D01*
X63024922Y-68161004D01*
X62895341Y-68054659D01*
X62788996Y-67925078D01*
X62742819Y-67838686D01*
X62709976Y-67777242D01*
X62661313Y-67616823D01*
X62644883Y-67450000D01*
X62661313Y-67283177D01*
X62709976Y-67122758D01*
X62788995Y-66974924D01*
X62788996Y-66974922D01*
X62895341Y-66845341D01*
X63024922Y-66738996D01*
X63040094Y-66730886D01*
X63172758Y-66659976D01*
X63333177Y-66611313D01*
X63458196Y-66599000D01*
X63541804Y-66599000D01*
X63666823Y-66611313D01*
X63666823Y-66611313D01*
G37*
G36*
X58416823Y-66611313D02*
G01*
X58577242Y-66659976D01*
X58709906Y-66730886D01*
X58725078Y-66738996D01*
X58854659Y-66845341D01*
X58961004Y-66974922D01*
X58961005Y-66974924D01*
X59040024Y-67122758D01*
X59088687Y-67283177D01*
X59105117Y-67450000D01*
X59088687Y-67616823D01*
X59040024Y-67777242D01*
X59007181Y-67838686D01*
X58961004Y-67925078D01*
X58854659Y-68054659D01*
X58725078Y-68161004D01*
X58725076Y-68161005D01*
X58577242Y-68240024D01*
X58416823Y-68288687D01*
X58291804Y-68301000D01*
X58208196Y-68301000D01*
X58083177Y-68288687D01*
X57922758Y-68240024D01*
X57774924Y-68161005D01*
X57774922Y-68161004D01*
X57645341Y-68054659D01*
X57538996Y-67925078D01*
X57492819Y-67838686D01*
X57459976Y-67777242D01*
X57411313Y-67616823D01*
X57394883Y-67450000D01*
X57411313Y-67283177D01*
X57459976Y-67122758D01*
X57538995Y-66974924D01*
X57538996Y-66974922D01*
X57645341Y-66845341D01*
X57774922Y-66738996D01*
X57790094Y-66730886D01*
X57922758Y-66659976D01*
X58083177Y-66611313D01*
X58208196Y-66599000D01*
X58291804Y-66599000D01*
X58416823Y-66611313D01*
X58416823Y-66611313D01*
G37*
G36*
X36466823Y-66161313D02*
G01*
X36627242Y-66209976D01*
X36694361Y-66245852D01*
X36775078Y-66288996D01*
X36904659Y-66395341D01*
X37011004Y-66524922D01*
X37011005Y-66524924D01*
X37090024Y-66672758D01*
X37138687Y-66833177D01*
X37155117Y-67000000D01*
X37138687Y-67166823D01*
X37090024Y-67327242D01*
X37049477Y-67403100D01*
X37011004Y-67475078D01*
X36904659Y-67604659D01*
X36775078Y-67711004D01*
X36775076Y-67711005D01*
X36627242Y-67790024D01*
X36466823Y-67838687D01*
X36341804Y-67851000D01*
X36258196Y-67851000D01*
X36133177Y-67838687D01*
X35972758Y-67790024D01*
X35824924Y-67711005D01*
X35824922Y-67711004D01*
X35695341Y-67604659D01*
X35588996Y-67475078D01*
X35550523Y-67403100D01*
X35509976Y-67327242D01*
X35461313Y-67166823D01*
X35444883Y-67000000D01*
X35461313Y-66833177D01*
X35509976Y-66672758D01*
X35588995Y-66524924D01*
X35588996Y-66524922D01*
X35695341Y-66395341D01*
X35824922Y-66288996D01*
X35905639Y-66245852D01*
X35972758Y-66209976D01*
X36133177Y-66161313D01*
X36258196Y-66149000D01*
X36341804Y-66149000D01*
X36466823Y-66161313D01*
X36466823Y-66161313D01*
G37*
G36*
X49248228Y-66181703D02*
G01*
X49403100Y-66245853D01*
X49542481Y-66338985D01*
X49661015Y-66457519D01*
X49754147Y-66596900D01*
X49818297Y-66751772D01*
X49851000Y-66916184D01*
X49851000Y-67083816D01*
X49818297Y-67248228D01*
X49754147Y-67403100D01*
X49661015Y-67542481D01*
X49542481Y-67661015D01*
X49403100Y-67754147D01*
X49248228Y-67818297D01*
X49083816Y-67851000D01*
X48916184Y-67851000D01*
X48751772Y-67818297D01*
X48596900Y-67754147D01*
X48457519Y-67661015D01*
X48338985Y-67542481D01*
X48245853Y-67403100D01*
X48181703Y-67248228D01*
X48149000Y-67083816D01*
X48149000Y-66916184D01*
X48181703Y-66751772D01*
X48245853Y-66596900D01*
X48338985Y-66457519D01*
X48457519Y-66338985D01*
X48596900Y-66245853D01*
X48751772Y-66181703D01*
X48916184Y-66149000D01*
X49083816Y-66149000D01*
X49248228Y-66181703D01*
X49248228Y-66181703D01*
G37*
G36*
X27730411Y-65004259D02*
G01*
X27775853Y-65018044D01*
X27817736Y-65040431D01*
X27854444Y-65070556D01*
X27884569Y-65107264D01*
X27906956Y-65149147D01*
X27920741Y-65194589D01*
X27926000Y-65247990D01*
X27926000Y-66652010D01*
X27920741Y-66705411D01*
X27906956Y-66750853D01*
X27884569Y-66792736D01*
X27854444Y-66829444D01*
X27817736Y-66859569D01*
X27775853Y-66881956D01*
X27730411Y-66895741D01*
X27677010Y-66901000D01*
X26322990Y-66901000D01*
X26269589Y-66895741D01*
X26224147Y-66881956D01*
X26182264Y-66859569D01*
X26145556Y-66829444D01*
X26115431Y-66792736D01*
X26093044Y-66750853D01*
X26079259Y-66705411D01*
X26074000Y-66652010D01*
X26074000Y-65247990D01*
X26079259Y-65194589D01*
X26093044Y-65149147D01*
X26115431Y-65107264D01*
X26145556Y-65070556D01*
X26182264Y-65040431D01*
X26224147Y-65018044D01*
X26269589Y-65004259D01*
X26322990Y-64999000D01*
X27677010Y-64999000D01*
X27730411Y-65004259D01*
X27730411Y-65004259D01*
G37*
G36*
X29501000Y-66501000D02*
G01*
X28599000Y-66501000D01*
X28599000Y-65499000D01*
X29501000Y-65499000D01*
X29501000Y-66501000D01*
X29501000Y-66501000D01*
G37*
G36*
X31401000Y-66501000D02*
G01*
X30499000Y-66501000D01*
X30499000Y-65499000D01*
X31401000Y-65499000D01*
X31401000Y-66501000D01*
X31401000Y-66501000D01*
G37*
G36*
X41956000Y-63626000D02*
G01*
X40654000Y-63626000D01*
X40654000Y-61324000D01*
X41956000Y-61324000D01*
X41956000Y-63626000D01*
X41956000Y-63626000D01*
G37*
G36*
X37396000Y-63626000D02*
G01*
X36094000Y-63626000D01*
X36094000Y-61324000D01*
X37396000Y-61324000D01*
X37396000Y-63626000D01*
X37396000Y-63626000D01*
G37*
G36*
X45121000Y-63601000D02*
G01*
X43819000Y-63601000D01*
X43819000Y-61299000D01*
X45121000Y-61299000D01*
X45121000Y-63601000D01*
X45121000Y-63601000D01*
G37*
G36*
X32366823Y-61911313D02*
G01*
X32527242Y-61959976D01*
X32594361Y-61995852D01*
X32675078Y-62038996D01*
X32804659Y-62145341D01*
X32911004Y-62274922D01*
X32911005Y-62274924D01*
X32990024Y-62422758D01*
X33038687Y-62583177D01*
X33055117Y-62750000D01*
X33038687Y-62916823D01*
X32990024Y-63077242D01*
X32949477Y-63153100D01*
X32911004Y-63225078D01*
X32804659Y-63354659D01*
X32675078Y-63461004D01*
X32675076Y-63461005D01*
X32527242Y-63540024D01*
X32366823Y-63588687D01*
X32241804Y-63601000D01*
X32158196Y-63601000D01*
X32033177Y-63588687D01*
X31872758Y-63540024D01*
X31724924Y-63461005D01*
X31724922Y-63461004D01*
X31595341Y-63354659D01*
X31488996Y-63225078D01*
X31450523Y-63153100D01*
X31409976Y-63077242D01*
X31361313Y-62916823D01*
X31344883Y-62750000D01*
X31361313Y-62583177D01*
X31409976Y-62422758D01*
X31488995Y-62274924D01*
X31488996Y-62274922D01*
X31595341Y-62145341D01*
X31724922Y-62038996D01*
X31805639Y-61995852D01*
X31872758Y-61959976D01*
X32033177Y-61911313D01*
X32158196Y-61899000D01*
X32241804Y-61899000D01*
X32366823Y-61911313D01*
X32366823Y-61911313D01*
G37*
G36*
X49681000Y-63601000D02*
G01*
X48379000Y-63601000D01*
X48379000Y-61299000D01*
X49681000Y-61299000D01*
X49681000Y-63601000D01*
X49681000Y-63601000D01*
G37*
G36*
X19748228Y-61931703D02*
G01*
X19903100Y-61995853D01*
X20042481Y-62088985D01*
X20161015Y-62207519D01*
X20254147Y-62346900D01*
X20318297Y-62501772D01*
X20351000Y-62666184D01*
X20351000Y-62833816D01*
X20318297Y-62998228D01*
X20254147Y-63153100D01*
X20161015Y-63292481D01*
X20042481Y-63411015D01*
X19903100Y-63504147D01*
X19748228Y-63568297D01*
X19583816Y-63601000D01*
X19416184Y-63601000D01*
X19251772Y-63568297D01*
X19096900Y-63504147D01*
X18957519Y-63411015D01*
X18838985Y-63292481D01*
X18745853Y-63153100D01*
X18681703Y-62998228D01*
X18649000Y-62833816D01*
X18649000Y-62666184D01*
X18681703Y-62501772D01*
X18745853Y-62346900D01*
X18838985Y-62207519D01*
X18957519Y-62088985D01*
X19096900Y-61995853D01*
X19251772Y-61931703D01*
X19416184Y-61899000D01*
X19583816Y-61899000D01*
X19748228Y-61931703D01*
X19748228Y-61931703D01*
G37*
G36*
X75551000Y-63301000D02*
G01*
X72449000Y-63301000D01*
X72449000Y-60199000D01*
X75551000Y-60199000D01*
X75551000Y-63301000D01*
X75551000Y-63301000D01*
G37*
G36*
X41976000Y-59426000D02*
G01*
X36074000Y-59426000D01*
X36074000Y-52924000D01*
X41976000Y-52924000D01*
X41976000Y-59426000D01*
X41976000Y-59426000D01*
G37*
G36*
X49701000Y-59401000D02*
G01*
X43799000Y-59401000D01*
X43799000Y-52899000D01*
X49701000Y-52899000D01*
X49701000Y-59401000D01*
X49701000Y-59401000D01*
G37*
G36*
X19748228Y-57681703D02*
G01*
X19903100Y-57745853D01*
X20042481Y-57838985D01*
X20161015Y-57957519D01*
X20254147Y-58096900D01*
X20318297Y-58251772D01*
X20351000Y-58416184D01*
X20351000Y-58583816D01*
X20318297Y-58748228D01*
X20254147Y-58903100D01*
X20161015Y-59042481D01*
X20042481Y-59161015D01*
X19903100Y-59254147D01*
X19748228Y-59318297D01*
X19583816Y-59351000D01*
X19416184Y-59351000D01*
X19251772Y-59318297D01*
X19096900Y-59254147D01*
X18957519Y-59161015D01*
X18838985Y-59042481D01*
X18745853Y-58903100D01*
X18681703Y-58748228D01*
X18649000Y-58583816D01*
X18649000Y-58416184D01*
X18681703Y-58251772D01*
X18745853Y-58096900D01*
X18838985Y-57957519D01*
X18957519Y-57838985D01*
X19096900Y-57745853D01*
X19251772Y-57681703D01*
X19416184Y-57649000D01*
X19583816Y-57649000D01*
X19748228Y-57681703D01*
X19748228Y-57681703D01*
G37*
G36*
X32366823Y-57661313D02*
G01*
X32527242Y-57709976D01*
X32594361Y-57745852D01*
X32675078Y-57788996D01*
X32804659Y-57895341D01*
X32911004Y-58024922D01*
X32911005Y-58024924D01*
X32990024Y-58172758D01*
X33038687Y-58333177D01*
X33055117Y-58500000D01*
X33038687Y-58666823D01*
X32990024Y-58827242D01*
X32949477Y-58903100D01*
X32911004Y-58975078D01*
X32804659Y-59104659D01*
X32675078Y-59211004D01*
X32675076Y-59211005D01*
X32527242Y-59290024D01*
X32366823Y-59338687D01*
X32241804Y-59351000D01*
X32158196Y-59351000D01*
X32033177Y-59338687D01*
X31872758Y-59290024D01*
X31724924Y-59211005D01*
X31724922Y-59211004D01*
X31595341Y-59104659D01*
X31488996Y-58975078D01*
X31450523Y-58903100D01*
X31409976Y-58827242D01*
X31361313Y-58666823D01*
X31344883Y-58500000D01*
X31361313Y-58333177D01*
X31409976Y-58172758D01*
X31488995Y-58024924D01*
X31488996Y-58024922D01*
X31595341Y-57895341D01*
X31724922Y-57788996D01*
X31805639Y-57745852D01*
X31872758Y-57709976D01*
X32033177Y-57661313D01*
X32158196Y-57649000D01*
X32241804Y-57649000D01*
X32366823Y-57661313D01*
X32366823Y-57661313D01*
G37*
G36*
X74258455Y-54790024D02*
G01*
X74452410Y-54828604D01*
X74734674Y-54945521D01*
X74988705Y-55115259D01*
X75204741Y-55331295D01*
X75374479Y-55585326D01*
X75491396Y-55867590D01*
X75551000Y-56167240D01*
X75551000Y-56472760D01*
X75491396Y-56772410D01*
X75374479Y-57054674D01*
X75204741Y-57308705D01*
X74988705Y-57524741D01*
X74734674Y-57694479D01*
X74452410Y-57811396D01*
X74302585Y-57841198D01*
X74152761Y-57871000D01*
X73847239Y-57871000D01*
X73697415Y-57841198D01*
X73547590Y-57811396D01*
X73265326Y-57694479D01*
X73011295Y-57524741D01*
X72795259Y-57308705D01*
X72625521Y-57054674D01*
X72508604Y-56772410D01*
X72449000Y-56472760D01*
X72449000Y-56167240D01*
X72508604Y-55867590D01*
X72625521Y-55585326D01*
X72795259Y-55331295D01*
X73011295Y-55115259D01*
X73265326Y-54945521D01*
X73547590Y-54828604D01*
X73741545Y-54790024D01*
X73847239Y-54769000D01*
X74152761Y-54769000D01*
X74258455Y-54790024D01*
X74258455Y-54790024D01*
G37*
G36*
X58498228Y-53931703D02*
G01*
X58653100Y-53995853D01*
X58792481Y-54088985D01*
X58911015Y-54207519D01*
X59004147Y-54346900D01*
X59068297Y-54501772D01*
X59101000Y-54666184D01*
X59101000Y-54833816D01*
X59068297Y-54998228D01*
X59004147Y-55153100D01*
X58911015Y-55292481D01*
X58792481Y-55411015D01*
X58653100Y-55504147D01*
X58498228Y-55568297D01*
X58333816Y-55601000D01*
X58166184Y-55601000D01*
X58001772Y-55568297D01*
X57846900Y-55504147D01*
X57707519Y-55411015D01*
X57588985Y-55292481D01*
X57495853Y-55153100D01*
X57431703Y-54998228D01*
X57399000Y-54833816D01*
X57399000Y-54666184D01*
X57431703Y-54501772D01*
X57495853Y-54346900D01*
X57588985Y-54207519D01*
X57707519Y-54088985D01*
X57846900Y-53995853D01*
X58001772Y-53931703D01*
X58166184Y-53899000D01*
X58333816Y-53899000D01*
X58498228Y-53931703D01*
X58498228Y-53931703D01*
G37*
G36*
X63748228Y-53931703D02*
G01*
X63903100Y-53995853D01*
X64042481Y-54088985D01*
X64161015Y-54207519D01*
X64254147Y-54346900D01*
X64318297Y-54501772D01*
X64351000Y-54666184D01*
X64351000Y-54833816D01*
X64318297Y-54998228D01*
X64254147Y-55153100D01*
X64161015Y-55292481D01*
X64042481Y-55411015D01*
X63903100Y-55504147D01*
X63748228Y-55568297D01*
X63583816Y-55601000D01*
X63416184Y-55601000D01*
X63251772Y-55568297D01*
X63096900Y-55504147D01*
X62957519Y-55411015D01*
X62838985Y-55292481D01*
X62745853Y-55153100D01*
X62681703Y-54998228D01*
X62649000Y-54833816D01*
X62649000Y-54666184D01*
X62681703Y-54501772D01*
X62745853Y-54346900D01*
X62838985Y-54207519D01*
X62957519Y-54088985D01*
X63096900Y-53995853D01*
X63251772Y-53931703D01*
X63416184Y-53899000D01*
X63583816Y-53899000D01*
X63748228Y-53931703D01*
X63748228Y-53931703D01*
G37*
G36*
X19748228Y-53181703D02*
G01*
X19903100Y-53245853D01*
X20042481Y-53338985D01*
X20161015Y-53457519D01*
X20254147Y-53596900D01*
X20318297Y-53751772D01*
X20351000Y-53916184D01*
X20351000Y-54083816D01*
X20318297Y-54248228D01*
X20254147Y-54403100D01*
X20161015Y-54542481D01*
X20042481Y-54661015D01*
X19903100Y-54754147D01*
X19748228Y-54818297D01*
X19583816Y-54851000D01*
X19416184Y-54851000D01*
X19251772Y-54818297D01*
X19096900Y-54754147D01*
X18957519Y-54661015D01*
X18838985Y-54542481D01*
X18745853Y-54403100D01*
X18681703Y-54248228D01*
X18649000Y-54083816D01*
X18649000Y-53916184D01*
X18681703Y-53751772D01*
X18745853Y-53596900D01*
X18838985Y-53457519D01*
X18957519Y-53338985D01*
X19096900Y-53245853D01*
X19251772Y-53181703D01*
X19416184Y-53149000D01*
X19583816Y-53149000D01*
X19748228Y-53181703D01*
X19748228Y-53181703D01*
G37*
G36*
X32366823Y-53161313D02*
G01*
X32527242Y-53209976D01*
X32594361Y-53245852D01*
X32675078Y-53288996D01*
X32804659Y-53395341D01*
X32911004Y-53524922D01*
X32911005Y-53524924D01*
X32990024Y-53672758D01*
X33038687Y-53833177D01*
X33055117Y-54000000D01*
X33038687Y-54166823D01*
X32990024Y-54327242D01*
X32949477Y-54403100D01*
X32911004Y-54475078D01*
X32804659Y-54604659D01*
X32675078Y-54711004D01*
X32675076Y-54711005D01*
X32527242Y-54790024D01*
X32366823Y-54838687D01*
X32241804Y-54851000D01*
X32158196Y-54851000D01*
X32033177Y-54838687D01*
X31872758Y-54790024D01*
X31724924Y-54711005D01*
X31724922Y-54711004D01*
X31595341Y-54604659D01*
X31488996Y-54475078D01*
X31450523Y-54403100D01*
X31409976Y-54327242D01*
X31361313Y-54166823D01*
X31344883Y-54000000D01*
X31361313Y-53833177D01*
X31409976Y-53672758D01*
X31488995Y-53524924D01*
X31488996Y-53524922D01*
X31595341Y-53395341D01*
X31724922Y-53288996D01*
X31805639Y-53245852D01*
X31872758Y-53209976D01*
X32033177Y-53161313D01*
X32158196Y-53149000D01*
X32241804Y-53149000D01*
X32366823Y-53161313D01*
X32366823Y-53161313D01*
G37*
G36*
X74302585Y-49718802D02*
G01*
X74452410Y-49748604D01*
X74734674Y-49865521D01*
X74988705Y-50035259D01*
X75204741Y-50251295D01*
X75374479Y-50505326D01*
X75491396Y-50787590D01*
X75551000Y-51087240D01*
X75551000Y-51392760D01*
X75491396Y-51692410D01*
X75374479Y-51974674D01*
X75204741Y-52228705D01*
X74988705Y-52444741D01*
X74734674Y-52614479D01*
X74452410Y-52731396D01*
X74302585Y-52761198D01*
X74152761Y-52791000D01*
X73847239Y-52791000D01*
X73697415Y-52761198D01*
X73547590Y-52731396D01*
X73265326Y-52614479D01*
X73011295Y-52444741D01*
X72795259Y-52228705D01*
X72625521Y-51974674D01*
X72508604Y-51692410D01*
X72449000Y-51392760D01*
X72449000Y-51087240D01*
X72508604Y-50787590D01*
X72625521Y-50505326D01*
X72795259Y-50251295D01*
X73011295Y-50035259D01*
X73265326Y-49865521D01*
X73547590Y-49748604D01*
X73697415Y-49718802D01*
X73847239Y-49689000D01*
X74152761Y-49689000D01*
X74302585Y-49718802D01*
X74302585Y-49718802D01*
G37*
G36*
X53216823Y-48661313D02*
G01*
X53377242Y-48709976D01*
X53444361Y-48745852D01*
X53525078Y-48788996D01*
X53654659Y-48895341D01*
X53761004Y-49024922D01*
X53761005Y-49024924D01*
X53840024Y-49172758D01*
X53888687Y-49333177D01*
X53905117Y-49500000D01*
X53888687Y-49666823D01*
X53840024Y-49827242D01*
X53799477Y-49903100D01*
X53761004Y-49975078D01*
X53654659Y-50104659D01*
X53525078Y-50211004D01*
X53525076Y-50211005D01*
X53377242Y-50290024D01*
X53216823Y-50338687D01*
X53091804Y-50351000D01*
X53008196Y-50351000D01*
X52883177Y-50338687D01*
X52722758Y-50290024D01*
X52574924Y-50211005D01*
X52574922Y-50211004D01*
X52445341Y-50104659D01*
X52338996Y-49975078D01*
X52300523Y-49903100D01*
X52259976Y-49827242D01*
X52211313Y-49666823D01*
X52194883Y-49500000D01*
X52211313Y-49333177D01*
X52259976Y-49172758D01*
X52338995Y-49024924D01*
X52338996Y-49024922D01*
X52445341Y-48895341D01*
X52574922Y-48788996D01*
X52655639Y-48745852D01*
X52722758Y-48709976D01*
X52883177Y-48661313D01*
X53008196Y-48649000D01*
X53091804Y-48649000D01*
X53216823Y-48661313D01*
X53216823Y-48661313D01*
G37*
G36*
X65998228Y-48681703D02*
G01*
X66153100Y-48745853D01*
X66292481Y-48838985D01*
X66411015Y-48957519D01*
X66504147Y-49096900D01*
X66568297Y-49251772D01*
X66601000Y-49416184D01*
X66601000Y-49583816D01*
X66568297Y-49748228D01*
X66504147Y-49903100D01*
X66411015Y-50042481D01*
X66292481Y-50161015D01*
X66153100Y-50254147D01*
X65998228Y-50318297D01*
X65833816Y-50351000D01*
X65666184Y-50351000D01*
X65501772Y-50318297D01*
X65346900Y-50254147D01*
X65207519Y-50161015D01*
X65088985Y-50042481D01*
X64995853Y-49903100D01*
X64931703Y-49748228D01*
X64899000Y-49583816D01*
X64899000Y-49416184D01*
X64931703Y-49251772D01*
X64995853Y-49096900D01*
X65088985Y-48957519D01*
X65207519Y-48838985D01*
X65346900Y-48745853D01*
X65501772Y-48681703D01*
X65666184Y-48649000D01*
X65833816Y-48649000D01*
X65998228Y-48681703D01*
X65998228Y-48681703D01*
G37*
G36*
X35216823Y-46661313D02*
G01*
X35377242Y-46709976D01*
X35444361Y-46745852D01*
X35525078Y-46788996D01*
X35654659Y-46895341D01*
X35761004Y-47024922D01*
X35761005Y-47024924D01*
X35840024Y-47172758D01*
X35888687Y-47333177D01*
X35905117Y-47500000D01*
X35888687Y-47666823D01*
X35840024Y-47827242D01*
X35799477Y-47903100D01*
X35761004Y-47975078D01*
X35654659Y-48104659D01*
X35525078Y-48211004D01*
X35525076Y-48211005D01*
X35377242Y-48290024D01*
X35216823Y-48338687D01*
X35091804Y-48351000D01*
X35008196Y-48351000D01*
X34883177Y-48338687D01*
X34722758Y-48290024D01*
X34574924Y-48211005D01*
X34574922Y-48211004D01*
X34445341Y-48104659D01*
X34338996Y-47975078D01*
X34300523Y-47903100D01*
X34259976Y-47827242D01*
X34211313Y-47666823D01*
X34194883Y-47500000D01*
X34211313Y-47333177D01*
X34259976Y-47172758D01*
X34338995Y-47024924D01*
X34338996Y-47024922D01*
X34445341Y-46895341D01*
X34574922Y-46788996D01*
X34655639Y-46745852D01*
X34722758Y-46709976D01*
X34883177Y-46661313D01*
X35008196Y-46649000D01*
X35091804Y-46649000D01*
X35216823Y-46661313D01*
X35216823Y-46661313D01*
G37*
G36*
X47998228Y-46681703D02*
G01*
X48153100Y-46745853D01*
X48292481Y-46838985D01*
X48411015Y-46957519D01*
X48504147Y-47096900D01*
X48568297Y-47251772D01*
X48601000Y-47416184D01*
X48601000Y-47583816D01*
X48568297Y-47748228D01*
X48504147Y-47903100D01*
X48411015Y-48042481D01*
X48292481Y-48161015D01*
X48153100Y-48254147D01*
X47998228Y-48318297D01*
X47833816Y-48351000D01*
X47666184Y-48351000D01*
X47501772Y-48318297D01*
X47346900Y-48254147D01*
X47207519Y-48161015D01*
X47088985Y-48042481D01*
X46995853Y-47903100D01*
X46931703Y-47748228D01*
X46899000Y-47583816D01*
X46899000Y-47416184D01*
X46931703Y-47251772D01*
X46995853Y-47096900D01*
X47088985Y-46957519D01*
X47207519Y-46838985D01*
X47346900Y-46745853D01*
X47501772Y-46681703D01*
X47666184Y-46649000D01*
X47833816Y-46649000D01*
X47998228Y-46681703D01*
X47998228Y-46681703D01*
G37*
G36*
X74302585Y-44638802D02*
G01*
X74452410Y-44668604D01*
X74734674Y-44785521D01*
X74988705Y-44955259D01*
X75204741Y-45171295D01*
X75374479Y-45425326D01*
X75491396Y-45707590D01*
X75551000Y-46007240D01*
X75551000Y-46312760D01*
X75491396Y-46612410D01*
X75374479Y-46894674D01*
X75204741Y-47148705D01*
X74988705Y-47364741D01*
X74734674Y-47534479D01*
X74452410Y-47651396D01*
X74374853Y-47666823D01*
X74152761Y-47711000D01*
X73847239Y-47711000D01*
X73625147Y-47666823D01*
X73547590Y-47651396D01*
X73265326Y-47534479D01*
X73011295Y-47364741D01*
X72795259Y-47148705D01*
X72625521Y-46894674D01*
X72508604Y-46612410D01*
X72449000Y-46312760D01*
X72449000Y-46007240D01*
X72508604Y-45707590D01*
X72625521Y-45425326D01*
X72795259Y-45171295D01*
X73011295Y-44955259D01*
X73265326Y-44785521D01*
X73547590Y-44668604D01*
X73697415Y-44638802D01*
X73847239Y-44609000D01*
X74152761Y-44609000D01*
X74302585Y-44638802D01*
X74302585Y-44638802D01*
G37*
G36*
X65998228Y-42931703D02*
G01*
X66153100Y-42995853D01*
X66292481Y-43088985D01*
X66411015Y-43207519D01*
X66504147Y-43346900D01*
X66568297Y-43501772D01*
X66601000Y-43666184D01*
X66601000Y-43833816D01*
X66568297Y-43998228D01*
X66504147Y-44153100D01*
X66411015Y-44292481D01*
X66292481Y-44411015D01*
X66153100Y-44504147D01*
X65998228Y-44568297D01*
X65833816Y-44601000D01*
X65666184Y-44601000D01*
X65501772Y-44568297D01*
X65346900Y-44504147D01*
X65207519Y-44411015D01*
X65088985Y-44292481D01*
X64995853Y-44153100D01*
X64931703Y-43998228D01*
X64899000Y-43833816D01*
X64899000Y-43666184D01*
X64931703Y-43501772D01*
X64995853Y-43346900D01*
X65088985Y-43207519D01*
X65207519Y-43088985D01*
X65346900Y-42995853D01*
X65501772Y-42931703D01*
X65666184Y-42899000D01*
X65833816Y-42899000D01*
X65998228Y-42931703D01*
X65998228Y-42931703D01*
G37*
G36*
X53216823Y-42911313D02*
G01*
X53377242Y-42959976D01*
X53509906Y-43030886D01*
X53525078Y-43038996D01*
X53654659Y-43145341D01*
X53761004Y-43274922D01*
X53761005Y-43274924D01*
X53840024Y-43422758D01*
X53888687Y-43583177D01*
X53905117Y-43750000D01*
X53888687Y-43916823D01*
X53840024Y-44077242D01*
X53799477Y-44153100D01*
X53761004Y-44225078D01*
X53654659Y-44354659D01*
X53525078Y-44461004D01*
X53525076Y-44461005D01*
X53377242Y-44540024D01*
X53216823Y-44588687D01*
X53091804Y-44601000D01*
X53008196Y-44601000D01*
X52883177Y-44588687D01*
X52722758Y-44540024D01*
X52574924Y-44461005D01*
X52574922Y-44461004D01*
X52445341Y-44354659D01*
X52338996Y-44225078D01*
X52300523Y-44153100D01*
X52259976Y-44077242D01*
X52211313Y-43916823D01*
X52194883Y-43750000D01*
X52211313Y-43583177D01*
X52259976Y-43422758D01*
X52338995Y-43274924D01*
X52338996Y-43274922D01*
X52445341Y-43145341D01*
X52574922Y-43038996D01*
X52590094Y-43030886D01*
X52722758Y-42959976D01*
X52883177Y-42911313D01*
X53008196Y-42899000D01*
X53091804Y-42899000D01*
X53216823Y-42911313D01*
X53216823Y-42911313D01*
G37*
G36*
X35151000Y-43901000D02*
G01*
X33349000Y-43901000D01*
X33349000Y-42099000D01*
X35151000Y-42099000D01*
X35151000Y-43901000D01*
X35151000Y-43901000D01*
G37*
G36*
X31820442Y-42105518D02*
G01*
X31886627Y-42112037D01*
X32056466Y-42163557D01*
X32212991Y-42247222D01*
X32248729Y-42276552D01*
X32350186Y-42359814D01*
X32427874Y-42454479D01*
X32462778Y-42497009D01*
X32546443Y-42653534D01*
X32597963Y-42823373D01*
X32615359Y-43000000D01*
X32597963Y-43176627D01*
X32546443Y-43346466D01*
X32462778Y-43502991D01*
X32433448Y-43538729D01*
X32350186Y-43640186D01*
X32248729Y-43723448D01*
X32212991Y-43752778D01*
X32056466Y-43836443D01*
X31886627Y-43887963D01*
X31820442Y-43894482D01*
X31754260Y-43901000D01*
X31665740Y-43901000D01*
X31599558Y-43894482D01*
X31533373Y-43887963D01*
X31363534Y-43836443D01*
X31207009Y-43752778D01*
X31171271Y-43723448D01*
X31069814Y-43640186D01*
X30986552Y-43538729D01*
X30957222Y-43502991D01*
X30873557Y-43346466D01*
X30822037Y-43176627D01*
X30804641Y-43000000D01*
X30822037Y-42823373D01*
X30873557Y-42653534D01*
X30957222Y-42497009D01*
X30992126Y-42454479D01*
X31069814Y-42359814D01*
X31171271Y-42276552D01*
X31207009Y-42247222D01*
X31363534Y-42163557D01*
X31533373Y-42112037D01*
X31599558Y-42105518D01*
X31665740Y-42099000D01*
X31754260Y-42099000D01*
X31820442Y-42105518D01*
X31820442Y-42105518D01*
G37*
G36*
X29280442Y-42105518D02*
G01*
X29346627Y-42112037D01*
X29516466Y-42163557D01*
X29672991Y-42247222D01*
X29708729Y-42276552D01*
X29810186Y-42359814D01*
X29887874Y-42454479D01*
X29922778Y-42497009D01*
X30006443Y-42653534D01*
X30057963Y-42823373D01*
X30075359Y-43000000D01*
X30057963Y-43176627D01*
X30006443Y-43346466D01*
X29922778Y-43502991D01*
X29893448Y-43538729D01*
X29810186Y-43640186D01*
X29708729Y-43723448D01*
X29672991Y-43752778D01*
X29516466Y-43836443D01*
X29346627Y-43887963D01*
X29280442Y-43894482D01*
X29214260Y-43901000D01*
X29125740Y-43901000D01*
X29059558Y-43894482D01*
X28993373Y-43887963D01*
X28823534Y-43836443D01*
X28667009Y-43752778D01*
X28631271Y-43723448D01*
X28529814Y-43640186D01*
X28446552Y-43538729D01*
X28417222Y-43502991D01*
X28333557Y-43346466D01*
X28282037Y-43176627D01*
X28264641Y-43000000D01*
X28282037Y-42823373D01*
X28333557Y-42653534D01*
X28417222Y-42497009D01*
X28452126Y-42454479D01*
X28529814Y-42359814D01*
X28631271Y-42276552D01*
X28667009Y-42247222D01*
X28823534Y-42163557D01*
X28993373Y-42112037D01*
X29059558Y-42105518D01*
X29125740Y-42099000D01*
X29214260Y-42099000D01*
X29280442Y-42105518D01*
X29280442Y-42105518D01*
G37*
G36*
X19114999Y-40654737D02*
G01*
X19124608Y-40657652D01*
X19128422Y-40659691D01*
X19133471Y-40662390D01*
X19144461Y-40672303D01*
X19147605Y-40676097D01*
X19150713Y-40678901D01*
X19284644Y-40840542D01*
X19292508Y-40849178D01*
X19419988Y-40976658D01*
X19429908Y-40985571D01*
X19570359Y-41098838D01*
X19580921Y-41106483D01*
X19737459Y-41207772D01*
X19745729Y-41212682D01*
X19906007Y-41299690D01*
X19918680Y-41305675D01*
X20085441Y-41373281D01*
X20098472Y-41377745D01*
X20277470Y-41428232D01*
X20286888Y-41430499D01*
X20469700Y-41467061D01*
X20484627Y-41469120D01*
X20662204Y-41482780D01*
X20671791Y-41483148D01*
X20828209Y-41483148D01*
X20837796Y-41482780D01*
X21015373Y-41469120D01*
X21030300Y-41467061D01*
X21213112Y-41430499D01*
X21222530Y-41428232D01*
X21401528Y-41377745D01*
X21414559Y-41373281D01*
X21581320Y-41305675D01*
X21593993Y-41299690D01*
X21754271Y-41212682D01*
X21762541Y-41207772D01*
X21919079Y-41106483D01*
X21929641Y-41098838D01*
X22070092Y-40985571D01*
X22080012Y-40976658D01*
X22207492Y-40849178D01*
X22215356Y-40840542D01*
X22351159Y-40676642D01*
X22362674Y-40665234D01*
X22371055Y-40659691D01*
X22377616Y-40657009D01*
X22377617Y-40657009D01*
X22380354Y-40655890D01*
X22395000Y-40653753D01*
X22399929Y-40653753D01*
X22404075Y-40653148D01*
X24298860Y-40653148D01*
X24314999Y-40654737D01*
X24324608Y-40657652D01*
X24333472Y-40662390D01*
X24341237Y-40668763D01*
X24347610Y-40676528D01*
X24352348Y-40685392D01*
X24355263Y-40695001D01*
X24356852Y-40711140D01*
X24356852Y-41517710D01*
X24359254Y-41542096D01*
X24366365Y-41565537D01*
X24420807Y-41696973D01*
X24466000Y-41924174D01*
X24466000Y-42155826D01*
X24420807Y-42383027D01*
X24366365Y-42514463D01*
X24359254Y-42537904D01*
X24356852Y-42562290D01*
X24356852Y-43048860D01*
X24355263Y-43064999D01*
X24352348Y-43074608D01*
X24347610Y-43083472D01*
X24341237Y-43091237D01*
X24333472Y-43097610D01*
X24324608Y-43102348D01*
X24314999Y-43105263D01*
X24298860Y-43106852D01*
X23812290Y-43106852D01*
X23787904Y-43109254D01*
X23764463Y-43116365D01*
X23633027Y-43170807D01*
X23481560Y-43200936D01*
X23405827Y-43216000D01*
X23174173Y-43216000D01*
X23098440Y-43200936D01*
X22946973Y-43170807D01*
X22815537Y-43116365D01*
X22792096Y-43109254D01*
X22767710Y-43106852D01*
X18732290Y-43106852D01*
X18707904Y-43109254D01*
X18684463Y-43116365D01*
X18553027Y-43170807D01*
X18401560Y-43200936D01*
X18325827Y-43216000D01*
X18094173Y-43216000D01*
X18018440Y-43200936D01*
X17866973Y-43170807D01*
X17735537Y-43116365D01*
X17712096Y-43109254D01*
X17687710Y-43106852D01*
X17201140Y-43106852D01*
X17185001Y-43105263D01*
X17175392Y-43102348D01*
X17166528Y-43097610D01*
X17158763Y-43091237D01*
X17152390Y-43083472D01*
X17147652Y-43074608D01*
X17144737Y-43064999D01*
X17143148Y-43048860D01*
X17143148Y-42562290D01*
X17140746Y-42537904D01*
X17133635Y-42514463D01*
X17079193Y-42383027D01*
X17034000Y-42155826D01*
X17034000Y-41924174D01*
X17079193Y-41696973D01*
X17133635Y-41565537D01*
X17140746Y-41542096D01*
X17143148Y-41517710D01*
X17143148Y-40711140D01*
X17144737Y-40695001D01*
X17147652Y-40685392D01*
X17152390Y-40676528D01*
X17158763Y-40668763D01*
X17166528Y-40662390D01*
X17175392Y-40657652D01*
X17185001Y-40654737D01*
X17201140Y-40653148D01*
X19098860Y-40653148D01*
X19114999Y-40654737D01*
X19114999Y-40654737D01*
G37*
G36*
X74302585Y-39558802D02*
G01*
X74452410Y-39588604D01*
X74734674Y-39705521D01*
X74988705Y-39875259D01*
X75204741Y-40091295D01*
X75374479Y-40345326D01*
X75491396Y-40627590D01*
X75551000Y-40927240D01*
X75551000Y-41232760D01*
X75491396Y-41532410D01*
X75374479Y-41814674D01*
X75204741Y-42068705D01*
X74988705Y-42284741D01*
X74734674Y-42454479D01*
X74452410Y-42571396D01*
X74302585Y-42601198D01*
X74152761Y-42631000D01*
X73847239Y-42631000D01*
X73697415Y-42601198D01*
X73547590Y-42571396D01*
X73265326Y-42454479D01*
X73011295Y-42284741D01*
X72795259Y-42068705D01*
X72625521Y-41814674D01*
X72508604Y-41532410D01*
X72449000Y-41232760D01*
X72449000Y-40927240D01*
X72508604Y-40627590D01*
X72625521Y-40345326D01*
X72795259Y-40091295D01*
X73011295Y-39875259D01*
X73265326Y-39705521D01*
X73547590Y-39588604D01*
X73697415Y-39558802D01*
X73847239Y-39529000D01*
X74152761Y-39529000D01*
X74302585Y-39558802D01*
X74302585Y-39558802D01*
G37*
G36*
X53216823Y-38911313D02*
G01*
X53377242Y-38959976D01*
X53489011Y-39019718D01*
X53525078Y-39038996D01*
X53654659Y-39145341D01*
X53761004Y-39274922D01*
X53761005Y-39274924D01*
X53840024Y-39422758D01*
X53888687Y-39583177D01*
X53905117Y-39750000D01*
X53888687Y-39916823D01*
X53840024Y-40077242D01*
X53799477Y-40153100D01*
X53761004Y-40225078D01*
X53654659Y-40354659D01*
X53525078Y-40461004D01*
X53525076Y-40461005D01*
X53377242Y-40540024D01*
X53216823Y-40588687D01*
X53091804Y-40601000D01*
X53008196Y-40601000D01*
X52883177Y-40588687D01*
X52722758Y-40540024D01*
X52574924Y-40461005D01*
X52574922Y-40461004D01*
X52445341Y-40354659D01*
X52338996Y-40225078D01*
X52300523Y-40153100D01*
X52259976Y-40077242D01*
X52211313Y-39916823D01*
X52194883Y-39750000D01*
X52211313Y-39583177D01*
X52259976Y-39422758D01*
X52338995Y-39274924D01*
X52338996Y-39274922D01*
X52445341Y-39145341D01*
X52574922Y-39038996D01*
X52610989Y-39019718D01*
X52722758Y-38959976D01*
X52883177Y-38911313D01*
X53008196Y-38899000D01*
X53091804Y-38899000D01*
X53216823Y-38911313D01*
X53216823Y-38911313D01*
G37*
G36*
X65998228Y-38931703D02*
G01*
X66153100Y-38995853D01*
X66292481Y-39088985D01*
X66411015Y-39207519D01*
X66504147Y-39346900D01*
X66568297Y-39501772D01*
X66601000Y-39666184D01*
X66601000Y-39833816D01*
X66568297Y-39998228D01*
X66504147Y-40153100D01*
X66411015Y-40292481D01*
X66292481Y-40411015D01*
X66153100Y-40504147D01*
X65998228Y-40568297D01*
X65833816Y-40601000D01*
X65666184Y-40601000D01*
X65501772Y-40568297D01*
X65346900Y-40504147D01*
X65207519Y-40411015D01*
X65088985Y-40292481D01*
X64995853Y-40153100D01*
X64931703Y-39998228D01*
X64899000Y-39833816D01*
X64899000Y-39666184D01*
X64931703Y-39501772D01*
X64995853Y-39346900D01*
X65088985Y-39207519D01*
X65207519Y-39088985D01*
X65346900Y-38995853D01*
X65501772Y-38931703D01*
X65666184Y-38899000D01*
X65833816Y-38899000D01*
X65998228Y-38931703D01*
X65998228Y-38931703D01*
G37*
G36*
X20925271Y-38437783D02*
G01*
X21063858Y-38465350D01*
X21259677Y-38546461D01*
X21435910Y-38664216D01*
X21585784Y-38814090D01*
X21703539Y-38990323D01*
X21784650Y-39186142D01*
X21826000Y-39394023D01*
X21826000Y-39605977D01*
X21784650Y-39813858D01*
X21703539Y-40009677D01*
X21585784Y-40185910D01*
X21435910Y-40335784D01*
X21259677Y-40453539D01*
X21063858Y-40534650D01*
X20925271Y-40562217D01*
X20855978Y-40576000D01*
X20644022Y-40576000D01*
X20574729Y-40562217D01*
X20436142Y-40534650D01*
X20240323Y-40453539D01*
X20064090Y-40335784D01*
X19914216Y-40185910D01*
X19796461Y-40009677D01*
X19715350Y-39813858D01*
X19674000Y-39605977D01*
X19674000Y-39394023D01*
X19715350Y-39186142D01*
X19796461Y-38990323D01*
X19914216Y-38814090D01*
X20064090Y-38664216D01*
X20240323Y-38546461D01*
X20436142Y-38465350D01*
X20574729Y-38437783D01*
X20644022Y-38424000D01*
X20855978Y-38424000D01*
X20925271Y-38437783D01*
X20925271Y-38437783D01*
G37*
G36*
X33238674Y-39003465D02*
G01*
X33276367Y-39014899D01*
X33311103Y-39033466D01*
X33341548Y-39058452D01*
X33366534Y-39088897D01*
X33385101Y-39123633D01*
X33396535Y-39161326D01*
X33401000Y-39206661D01*
X33401000Y-40293339D01*
X33396535Y-40338674D01*
X33385101Y-40376367D01*
X33366534Y-40411103D01*
X33341548Y-40441548D01*
X33311103Y-40466534D01*
X33276367Y-40485101D01*
X33238674Y-40496535D01*
X33193339Y-40501000D01*
X32356661Y-40501000D01*
X32311326Y-40496535D01*
X32273633Y-40485101D01*
X32238897Y-40466534D01*
X32208452Y-40441548D01*
X32183466Y-40411103D01*
X32164899Y-40376367D01*
X32153465Y-40338674D01*
X32149000Y-40293339D01*
X32149000Y-39206661D01*
X32153465Y-39161326D01*
X32164899Y-39123633D01*
X32183466Y-39088897D01*
X32208452Y-39058452D01*
X32238897Y-39033466D01*
X32273633Y-39014899D01*
X32311326Y-39003465D01*
X32356661Y-38999000D01*
X33193339Y-38999000D01*
X33238674Y-39003465D01*
X33238674Y-39003465D01*
G37*
G36*
X31188674Y-39003465D02*
G01*
X31226367Y-39014899D01*
X31261103Y-39033466D01*
X31291548Y-39058452D01*
X31316534Y-39088897D01*
X31335101Y-39123633D01*
X31346535Y-39161326D01*
X31351000Y-39206661D01*
X31351000Y-40293339D01*
X31346535Y-40338674D01*
X31335101Y-40376367D01*
X31316534Y-40411103D01*
X31291548Y-40441548D01*
X31261103Y-40466534D01*
X31226367Y-40485101D01*
X31188674Y-40496535D01*
X31143339Y-40501000D01*
X30306661Y-40501000D01*
X30261326Y-40496535D01*
X30223633Y-40485101D01*
X30188897Y-40466534D01*
X30158452Y-40441548D01*
X30133466Y-40411103D01*
X30114899Y-40376367D01*
X30103465Y-40338674D01*
X30099000Y-40293339D01*
X30099000Y-39206661D01*
X30103465Y-39161326D01*
X30114899Y-39123633D01*
X30133466Y-39088897D01*
X30158452Y-39058452D01*
X30188897Y-39033466D01*
X30223633Y-39014899D01*
X30261326Y-39003465D01*
X30306661Y-38999000D01*
X31143339Y-38999000D01*
X31188674Y-39003465D01*
X31188674Y-39003465D01*
G37*
G36*
X18401560Y-35799064D02*
G01*
X18553027Y-35829193D01*
X18684463Y-35883635D01*
X18707904Y-35890746D01*
X18732290Y-35893148D01*
X22767710Y-35893148D01*
X22792096Y-35890746D01*
X22815537Y-35883635D01*
X22946973Y-35829193D01*
X23098440Y-35799064D01*
X23174173Y-35784000D01*
X23405827Y-35784000D01*
X23481560Y-35799064D01*
X23633027Y-35829193D01*
X23764463Y-35883635D01*
X23787904Y-35890746D01*
X23812290Y-35893148D01*
X24298860Y-35893148D01*
X24314999Y-35894737D01*
X24324608Y-35897652D01*
X24333472Y-35902390D01*
X24341237Y-35908763D01*
X24347610Y-35916528D01*
X24352348Y-35925392D01*
X24355263Y-35935001D01*
X24356852Y-35951140D01*
X24356852Y-36437710D01*
X24359254Y-36462096D01*
X24366365Y-36485537D01*
X24420807Y-36616973D01*
X24466000Y-36844174D01*
X24466000Y-37075826D01*
X24420807Y-37303027D01*
X24366365Y-37434463D01*
X24359254Y-37457904D01*
X24356852Y-37482290D01*
X24356852Y-38288860D01*
X24355263Y-38304999D01*
X24352348Y-38314608D01*
X24347610Y-38323472D01*
X24341237Y-38331237D01*
X24333472Y-38337610D01*
X24324608Y-38342348D01*
X24314999Y-38345263D01*
X24298860Y-38346852D01*
X22401140Y-38346852D01*
X22385001Y-38345263D01*
X22375392Y-38342348D01*
X22369135Y-38339003D01*
X22366529Y-38337610D01*
X22355539Y-38327697D01*
X22352395Y-38323903D01*
X22349287Y-38321099D01*
X22215356Y-38159458D01*
X22207492Y-38150822D01*
X22080012Y-38023342D01*
X22070092Y-38014429D01*
X21929641Y-37901162D01*
X21919079Y-37893517D01*
X21762541Y-37792228D01*
X21754271Y-37787318D01*
X21593993Y-37700310D01*
X21581320Y-37694325D01*
X21414559Y-37626719D01*
X21401528Y-37622255D01*
X21222530Y-37571768D01*
X21213112Y-37569501D01*
X21030300Y-37532939D01*
X21015373Y-37530880D01*
X20837796Y-37517220D01*
X20828209Y-37516852D01*
X20671791Y-37516852D01*
X20662204Y-37517220D01*
X20484627Y-37530880D01*
X20469700Y-37532939D01*
X20286888Y-37569501D01*
X20277470Y-37571768D01*
X20098472Y-37622255D01*
X20085441Y-37626719D01*
X19918680Y-37694325D01*
X19906007Y-37700310D01*
X19745729Y-37787318D01*
X19737459Y-37792228D01*
X19580921Y-37893517D01*
X19570359Y-37901162D01*
X19429908Y-38014429D01*
X19419988Y-38023342D01*
X19292508Y-38150822D01*
X19284644Y-38159458D01*
X19148841Y-38323358D01*
X19137326Y-38334766D01*
X19137324Y-38334767D01*
X19128945Y-38340309D01*
X19119646Y-38344110D01*
X19105000Y-38346247D01*
X19100071Y-38346247D01*
X19095925Y-38346852D01*
X17201140Y-38346852D01*
X17185001Y-38345263D01*
X17175392Y-38342348D01*
X17166528Y-38337610D01*
X17158763Y-38331237D01*
X17152390Y-38323472D01*
X17147652Y-38314608D01*
X17144737Y-38304999D01*
X17143148Y-38288860D01*
X17143148Y-37482290D01*
X17140746Y-37457904D01*
X17133635Y-37434463D01*
X17079193Y-37303027D01*
X17034000Y-37075826D01*
X17034000Y-36844174D01*
X17079193Y-36616973D01*
X17133635Y-36485537D01*
X17140746Y-36462096D01*
X17143148Y-36437710D01*
X17143148Y-35951140D01*
X17144737Y-35935001D01*
X17147652Y-35925392D01*
X17152390Y-35916528D01*
X17158763Y-35908763D01*
X17166528Y-35902390D01*
X17175392Y-35897652D01*
X17185001Y-35894737D01*
X17201140Y-35893148D01*
X17687710Y-35893148D01*
X17712096Y-35890746D01*
X17735537Y-35883635D01*
X17866973Y-35829193D01*
X18018440Y-35799064D01*
X18094173Y-35784000D01*
X18325827Y-35784000D01*
X18401560Y-35799064D01*
X18401560Y-35799064D01*
G37*
G36*
X75551000Y-37551000D02*
G01*
X72449000Y-37551000D01*
X72449000Y-34449000D01*
X75551000Y-34449000D01*
X75551000Y-37551000D01*
X75551000Y-37551000D01*
G37*
G36*
X44498228Y-35681703D02*
G01*
X44653100Y-35745853D01*
X44792481Y-35838985D01*
X44911015Y-35957519D01*
X45004147Y-36096900D01*
X45068297Y-36251772D01*
X45101000Y-36416184D01*
X45101000Y-36583816D01*
X45068297Y-36748228D01*
X45004147Y-36903100D01*
X44911015Y-37042481D01*
X44792481Y-37161015D01*
X44653100Y-37254147D01*
X44498228Y-37318297D01*
X44333816Y-37351000D01*
X44166184Y-37351000D01*
X44001772Y-37318297D01*
X43846900Y-37254147D01*
X43707519Y-37161015D01*
X43588985Y-37042481D01*
X43495853Y-36903100D01*
X43431703Y-36748228D01*
X43399000Y-36583816D01*
X43399000Y-36416184D01*
X43431703Y-36251772D01*
X43495853Y-36096900D01*
X43588985Y-35957519D01*
X43707519Y-35838985D01*
X43846900Y-35745853D01*
X44001772Y-35681703D01*
X44166184Y-35649000D01*
X44333816Y-35649000D01*
X44498228Y-35681703D01*
X44498228Y-35681703D01*
G37*
G36*
X41998228Y-35681703D02*
G01*
X42153100Y-35745853D01*
X42292481Y-35838985D01*
X42411015Y-35957519D01*
X42504147Y-36096900D01*
X42568297Y-36251772D01*
X42601000Y-36416184D01*
X42601000Y-36583816D01*
X42568297Y-36748228D01*
X42504147Y-36903100D01*
X42411015Y-37042481D01*
X42292481Y-37161015D01*
X42153100Y-37254147D01*
X41998228Y-37318297D01*
X41833816Y-37351000D01*
X41666184Y-37351000D01*
X41501772Y-37318297D01*
X41346900Y-37254147D01*
X41207519Y-37161015D01*
X41088985Y-37042481D01*
X40995853Y-36903100D01*
X40931703Y-36748228D01*
X40899000Y-36583816D01*
X40899000Y-36416184D01*
X40931703Y-36251772D01*
X40995853Y-36096900D01*
X41088985Y-35957519D01*
X41207519Y-35838985D01*
X41346900Y-35745853D01*
X41501772Y-35681703D01*
X41666184Y-35649000D01*
X41833816Y-35649000D01*
X41998228Y-35681703D01*
X41998228Y-35681703D01*
G37*
G36*
X65998228Y-34931703D02*
G01*
X66153100Y-34995853D01*
X66292481Y-35088985D01*
X66411015Y-35207519D01*
X66504147Y-35346900D01*
X66568297Y-35501772D01*
X66601000Y-35666184D01*
X66601000Y-35833816D01*
X66568297Y-35998228D01*
X66504147Y-36153100D01*
X66411015Y-36292481D01*
X66292481Y-36411015D01*
X66153100Y-36504147D01*
X65998228Y-36568297D01*
X65833816Y-36601000D01*
X65666184Y-36601000D01*
X65501772Y-36568297D01*
X65346900Y-36504147D01*
X65207519Y-36411015D01*
X65088985Y-36292481D01*
X64995853Y-36153100D01*
X64931703Y-35998228D01*
X64899000Y-35833816D01*
X64899000Y-35666184D01*
X64931703Y-35501772D01*
X64995853Y-35346900D01*
X65088985Y-35207519D01*
X65207519Y-35088985D01*
X65346900Y-34995853D01*
X65501772Y-34931703D01*
X65666184Y-34899000D01*
X65833816Y-34899000D01*
X65998228Y-34931703D01*
X65998228Y-34931703D01*
G37*
G36*
X53216823Y-34911313D02*
G01*
X53377242Y-34959976D01*
X53444361Y-34995852D01*
X53525078Y-35038996D01*
X53654659Y-35145341D01*
X53761004Y-35274922D01*
X53761005Y-35274924D01*
X53840024Y-35422758D01*
X53888687Y-35583177D01*
X53905117Y-35750000D01*
X53888687Y-35916823D01*
X53840024Y-36077242D01*
X53799477Y-36153100D01*
X53761004Y-36225078D01*
X53654659Y-36354659D01*
X53525078Y-36461004D01*
X53525076Y-36461005D01*
X53377242Y-36540024D01*
X53216823Y-36588687D01*
X53091804Y-36601000D01*
X53008196Y-36601000D01*
X52883177Y-36588687D01*
X52722758Y-36540024D01*
X52574924Y-36461005D01*
X52574922Y-36461004D01*
X52445341Y-36354659D01*
X52338996Y-36225078D01*
X52300523Y-36153100D01*
X52259976Y-36077242D01*
X52211313Y-35916823D01*
X52194883Y-35750000D01*
X52211313Y-35583177D01*
X52259976Y-35422758D01*
X52338995Y-35274924D01*
X52338996Y-35274922D01*
X52445341Y-35145341D01*
X52574922Y-35038996D01*
X52655639Y-34995852D01*
X52722758Y-34959976D01*
X52883177Y-34911313D01*
X53008196Y-34899000D01*
X53091804Y-34899000D01*
X53216823Y-34911313D01*
X53216823Y-34911313D01*
G37*
G36*
X33401000Y-35901000D02*
G01*
X31599000Y-35901000D01*
X31599000Y-34099000D01*
X33401000Y-34099000D01*
X33401000Y-35901000D01*
X33401000Y-35901000D01*
G37*
G36*
X45305411Y-32829259D02*
G01*
X45350853Y-32843044D01*
X45392736Y-32865431D01*
X45429444Y-32895556D01*
X45459569Y-32932264D01*
X45481956Y-32974147D01*
X45495741Y-33019589D01*
X45501000Y-33072990D01*
X45501000Y-34427010D01*
X45495741Y-34480411D01*
X45481956Y-34525853D01*
X45459569Y-34567736D01*
X45429444Y-34604444D01*
X45392736Y-34634569D01*
X45350853Y-34656956D01*
X45305411Y-34670741D01*
X45252010Y-34676000D01*
X43847990Y-34676000D01*
X43794589Y-34670741D01*
X43749147Y-34656956D01*
X43707264Y-34634569D01*
X43670556Y-34604444D01*
X43640431Y-34567736D01*
X43618044Y-34525853D01*
X43604259Y-34480411D01*
X43599000Y-34427010D01*
X43599000Y-33072990D01*
X43604259Y-33019589D01*
X43618044Y-32974147D01*
X43640431Y-32932264D01*
X43670556Y-32895556D01*
X43707264Y-32865431D01*
X43749147Y-32843044D01*
X43794589Y-32829259D01*
X43847990Y-32824000D01*
X45252010Y-32824000D01*
X45305411Y-32829259D01*
X45305411Y-32829259D01*
G37*
G36*
X42705411Y-32829259D02*
G01*
X42750853Y-32843044D01*
X42792736Y-32865431D01*
X42829444Y-32895556D01*
X42859569Y-32932264D01*
X42881956Y-32974147D01*
X42895741Y-33019589D01*
X42901000Y-33072990D01*
X42901000Y-34427010D01*
X42895741Y-34480411D01*
X42881956Y-34525853D01*
X42859569Y-34567736D01*
X42829444Y-34604444D01*
X42792736Y-34634569D01*
X42750853Y-34656956D01*
X42705411Y-34670741D01*
X42652010Y-34676000D01*
X41247990Y-34676000D01*
X41194589Y-34670741D01*
X41149147Y-34656956D01*
X41107264Y-34634569D01*
X41070556Y-34604444D01*
X41040431Y-34567736D01*
X41018044Y-34525853D01*
X41004259Y-34480411D01*
X40999000Y-34427010D01*
X40999000Y-33072990D01*
X41004259Y-33019589D01*
X41018044Y-32974147D01*
X41040431Y-32932264D01*
X41070556Y-32895556D01*
X41107264Y-32865431D01*
X41149147Y-32843044D01*
X41194589Y-32829259D01*
X41247990Y-32824000D01*
X42652010Y-32824000D01*
X42705411Y-32829259D01*
X42705411Y-32829259D01*
G37*
G36*
X38188674Y-32753465D02*
G01*
X38226367Y-32764899D01*
X38261103Y-32783466D01*
X38291548Y-32808452D01*
X38316534Y-32838897D01*
X38335101Y-32873633D01*
X38346535Y-32911326D01*
X38351000Y-32956661D01*
X38351000Y-34043339D01*
X38346535Y-34088674D01*
X38335101Y-34126367D01*
X38316534Y-34161103D01*
X38291548Y-34191548D01*
X38261103Y-34216534D01*
X38226367Y-34235101D01*
X38188674Y-34246535D01*
X38143339Y-34251000D01*
X37306661Y-34251000D01*
X37261326Y-34246535D01*
X37223633Y-34235101D01*
X37188897Y-34216534D01*
X37158452Y-34191548D01*
X37133466Y-34161103D01*
X37114899Y-34126367D01*
X37103465Y-34088674D01*
X37099000Y-34043339D01*
X37099000Y-32956661D01*
X37103465Y-32911326D01*
X37114899Y-32873633D01*
X37133466Y-32838897D01*
X37158452Y-32808452D01*
X37188897Y-32783466D01*
X37223633Y-32764899D01*
X37261326Y-32753465D01*
X37306661Y-32749000D01*
X38143339Y-32749000D01*
X38188674Y-32753465D01*
X38188674Y-32753465D01*
G37*
G36*
X40238674Y-32753465D02*
G01*
X40276367Y-32764899D01*
X40311103Y-32783466D01*
X40341548Y-32808452D01*
X40366534Y-32838897D01*
X40385101Y-32873633D01*
X40396535Y-32911326D01*
X40401000Y-32956661D01*
X40401000Y-34043339D01*
X40396535Y-34088674D01*
X40385101Y-34126367D01*
X40366534Y-34161103D01*
X40341548Y-34191548D01*
X40311103Y-34216534D01*
X40276367Y-34235101D01*
X40238674Y-34246535D01*
X40193339Y-34251000D01*
X39356661Y-34251000D01*
X39311326Y-34246535D01*
X39273633Y-34235101D01*
X39238897Y-34216534D01*
X39208452Y-34191548D01*
X39183466Y-34161103D01*
X39164899Y-34126367D01*
X39153465Y-34088674D01*
X39149000Y-34043339D01*
X39149000Y-32956661D01*
X39153465Y-32911326D01*
X39164899Y-32873633D01*
X39183466Y-32838897D01*
X39208452Y-32808452D01*
X39238897Y-32783466D01*
X39273633Y-32764899D01*
X39311326Y-32753465D01*
X39356661Y-32749000D01*
X40193339Y-32749000D01*
X40238674Y-32753465D01*
X40238674Y-32753465D01*
G37*
G36*
X51901000Y-34051000D02*
G01*
X49599000Y-34051000D01*
X49599000Y-32899000D01*
X51901000Y-32899000D01*
X51901000Y-34051000D01*
X51901000Y-34051000D01*
G37*
G36*
X32610443Y-31565519D02*
G01*
X32676627Y-31572037D01*
X32846466Y-31623557D01*
X32846468Y-31623558D01*
X32892382Y-31648100D01*
X33002991Y-31707222D01*
X33038729Y-31736552D01*
X33140186Y-31819814D01*
X33223448Y-31921271D01*
X33252778Y-31957009D01*
X33336443Y-32113534D01*
X33387963Y-32283373D01*
X33405359Y-32460000D01*
X33387963Y-32636627D01*
X33336443Y-32806466D01*
X33336442Y-32806468D01*
X33327071Y-32824000D01*
X33252778Y-32962991D01*
X33223448Y-32998729D01*
X33140186Y-33100186D01*
X33047805Y-33176000D01*
X33002991Y-33212778D01*
X32846466Y-33296443D01*
X32676627Y-33347963D01*
X32610442Y-33354482D01*
X32544260Y-33361000D01*
X32455740Y-33361000D01*
X32389558Y-33354482D01*
X32323373Y-33347963D01*
X32153534Y-33296443D01*
X31997009Y-33212778D01*
X31952195Y-33176000D01*
X31859814Y-33100186D01*
X31776552Y-32998729D01*
X31747222Y-32962991D01*
X31672929Y-32824000D01*
X31663558Y-32806468D01*
X31663557Y-32806466D01*
X31612037Y-32636627D01*
X31594641Y-32460000D01*
X31612037Y-32283373D01*
X31663557Y-32113534D01*
X31747222Y-31957009D01*
X31776552Y-31921271D01*
X31859814Y-31819814D01*
X31961271Y-31736552D01*
X31997009Y-31707222D01*
X32107618Y-31648100D01*
X32153532Y-31623558D01*
X32153534Y-31623557D01*
X32323373Y-31572037D01*
X32389557Y-31565519D01*
X32455740Y-31559000D01*
X32544260Y-31559000D01*
X32610443Y-31565519D01*
X32610443Y-31565519D01*
G37*
G36*
X55138062Y-31328181D02*
G01*
X55172981Y-31338774D01*
X55205163Y-31355976D01*
X55233373Y-31379127D01*
X55256524Y-31407337D01*
X55273726Y-31439519D01*
X55284319Y-31474438D01*
X55288500Y-31516895D01*
X55288500Y-32983105D01*
X55284319Y-33025562D01*
X55273726Y-33060481D01*
X55256524Y-33092663D01*
X55233373Y-33120873D01*
X55205163Y-33144024D01*
X55172981Y-33161226D01*
X55138062Y-33171819D01*
X55095605Y-33176000D01*
X53954395Y-33176000D01*
X53911938Y-33171819D01*
X53877019Y-33161226D01*
X53844837Y-33144024D01*
X53816627Y-33120873D01*
X53793476Y-33092663D01*
X53776274Y-33060481D01*
X53765681Y-33025562D01*
X53761500Y-32983105D01*
X53761500Y-31516895D01*
X53765681Y-31474438D01*
X53776274Y-31439519D01*
X53793476Y-31407337D01*
X53816627Y-31379127D01*
X53844837Y-31355976D01*
X53877019Y-31338774D01*
X53911938Y-31328181D01*
X53954395Y-31324000D01*
X55095605Y-31324000D01*
X55138062Y-31328181D01*
X55138062Y-31328181D01*
G37*
G36*
X61955411Y-31329259D02*
G01*
X62000853Y-31343044D01*
X62042736Y-31365431D01*
X62079444Y-31395556D01*
X62109569Y-31432264D01*
X62131956Y-31474147D01*
X62145741Y-31519589D01*
X62151000Y-31572990D01*
X62151000Y-32927010D01*
X62145741Y-32980411D01*
X62131956Y-33025853D01*
X62109569Y-33067736D01*
X62079444Y-33104444D01*
X62042736Y-33134569D01*
X62000853Y-33156956D01*
X61955411Y-33170741D01*
X61902010Y-33176000D01*
X60497990Y-33176000D01*
X60444589Y-33170741D01*
X60399147Y-33156956D01*
X60357264Y-33134569D01*
X60320556Y-33104444D01*
X60290431Y-33067736D01*
X60268044Y-33025853D01*
X60254259Y-32980411D01*
X60249000Y-32927010D01*
X60249000Y-31572990D01*
X60254259Y-31519589D01*
X60268044Y-31474147D01*
X60290431Y-31432264D01*
X60320556Y-31395556D01*
X60357264Y-31365431D01*
X60399147Y-31343044D01*
X60444589Y-31329259D01*
X60497990Y-31324000D01*
X61902010Y-31324000D01*
X61955411Y-31329259D01*
X61955411Y-31329259D01*
G37*
G36*
X58113062Y-31328181D02*
G01*
X58147981Y-31338774D01*
X58180163Y-31355976D01*
X58208373Y-31379127D01*
X58231524Y-31407337D01*
X58248726Y-31439519D01*
X58259319Y-31474438D01*
X58263500Y-31516895D01*
X58263500Y-32983105D01*
X58259319Y-33025562D01*
X58248726Y-33060481D01*
X58231524Y-33092663D01*
X58208373Y-33120873D01*
X58180163Y-33144024D01*
X58147981Y-33161226D01*
X58113062Y-33171819D01*
X58070605Y-33176000D01*
X56929395Y-33176000D01*
X56886938Y-33171819D01*
X56852019Y-33161226D01*
X56819837Y-33144024D01*
X56791627Y-33120873D01*
X56768476Y-33092663D01*
X56751274Y-33060481D01*
X56740681Y-33025562D01*
X56736500Y-32983105D01*
X56736500Y-31516895D01*
X56740681Y-31474438D01*
X56751274Y-31439519D01*
X56768476Y-31407337D01*
X56791627Y-31379127D01*
X56819837Y-31355976D01*
X56852019Y-31338774D01*
X56886938Y-31328181D01*
X56929395Y-31324000D01*
X58070605Y-31324000D01*
X58113062Y-31328181D01*
X58113062Y-31328181D01*
G37*
G36*
X64555411Y-31329259D02*
G01*
X64600853Y-31343044D01*
X64642736Y-31365431D01*
X64679444Y-31395556D01*
X64709569Y-31432264D01*
X64731956Y-31474147D01*
X64745741Y-31519589D01*
X64751000Y-31572990D01*
X64751000Y-32927010D01*
X64745741Y-32980411D01*
X64731956Y-33025853D01*
X64709569Y-33067736D01*
X64679444Y-33104444D01*
X64642736Y-33134569D01*
X64600853Y-33156956D01*
X64555411Y-33170741D01*
X64502010Y-33176000D01*
X63097990Y-33176000D01*
X63044589Y-33170741D01*
X62999147Y-33156956D01*
X62957264Y-33134569D01*
X62920556Y-33104444D01*
X62890431Y-33067736D01*
X62868044Y-33025853D01*
X62854259Y-32980411D01*
X62849000Y-32927010D01*
X62849000Y-31572990D01*
X62854259Y-31519589D01*
X62868044Y-31474147D01*
X62890431Y-31432264D01*
X62920556Y-31395556D01*
X62957264Y-31365431D01*
X62999147Y-31343044D01*
X63044589Y-31329259D01*
X63097990Y-31324000D01*
X64502010Y-31324000D01*
X64555411Y-31329259D01*
X64555411Y-31329259D01*
G37*
G36*
X49801000Y-32551000D02*
G01*
X48649000Y-32551000D01*
X48649000Y-31449000D01*
X49801000Y-31449000D01*
X49801000Y-32551000D01*
X49801000Y-32551000D01*
G37*
G36*
X37141000Y-31626000D02*
G01*
X36239000Y-31626000D01*
X36239000Y-26924000D01*
X37141000Y-26924000D01*
X37141000Y-31626000D01*
X37141000Y-31626000D01*
G37*
G36*
X38411000Y-31626000D02*
G01*
X37509000Y-31626000D01*
X37509000Y-26924000D01*
X38411000Y-26924000D01*
X38411000Y-31626000D01*
X38411000Y-31626000D01*
G37*
G36*
X39681000Y-31626000D02*
G01*
X38779000Y-31626000D01*
X38779000Y-26924000D01*
X39681000Y-26924000D01*
X39681000Y-31626000D01*
X39681000Y-31626000D01*
G37*
G36*
X44761000Y-31626000D02*
G01*
X43859000Y-31626000D01*
X43859000Y-26924000D01*
X44761000Y-26924000D01*
X44761000Y-31626000D01*
X44761000Y-31626000D01*
G37*
G36*
X43491000Y-31626000D02*
G01*
X42589000Y-31626000D01*
X42589000Y-26924000D01*
X43491000Y-26924000D01*
X43491000Y-31626000D01*
X43491000Y-31626000D01*
G37*
G36*
X42221000Y-31626000D02*
G01*
X41319000Y-31626000D01*
X41319000Y-26924000D01*
X42221000Y-26924000D01*
X42221000Y-31626000D01*
X42221000Y-31626000D01*
G37*
G36*
X40951000Y-31626000D02*
G01*
X40049000Y-31626000D01*
X40049000Y-26924000D01*
X40951000Y-26924000D01*
X40951000Y-31626000D01*
X40951000Y-31626000D01*
G37*
G36*
X47838674Y-29903465D02*
G01*
X47876367Y-29914899D01*
X47911103Y-29933466D01*
X47941548Y-29958452D01*
X47966534Y-29988897D01*
X47985101Y-30023633D01*
X47996535Y-30061326D01*
X48001000Y-30106661D01*
X48001000Y-30943339D01*
X47996535Y-30988674D01*
X47985101Y-31026367D01*
X47966534Y-31061103D01*
X47941548Y-31091548D01*
X47911103Y-31116534D01*
X47876367Y-31135101D01*
X47838674Y-31146535D01*
X47793339Y-31151000D01*
X46706661Y-31151000D01*
X46661326Y-31146535D01*
X46623633Y-31135101D01*
X46588897Y-31116534D01*
X46558452Y-31091548D01*
X46533466Y-31061103D01*
X46514899Y-31026367D01*
X46503465Y-30988674D01*
X46499000Y-30943339D01*
X46499000Y-30106661D01*
X46503465Y-30061326D01*
X46514899Y-30023633D01*
X46533466Y-29988897D01*
X46558452Y-29958452D01*
X46588897Y-29933466D01*
X46623633Y-29914899D01*
X46661326Y-29903465D01*
X46706661Y-29899000D01*
X47793339Y-29899000D01*
X47838674Y-29903465D01*
X47838674Y-29903465D01*
G37*
G36*
X51901000Y-31101000D02*
G01*
X49599000Y-31101000D01*
X49599000Y-29949000D01*
X51901000Y-29949000D01*
X51901000Y-31101000D01*
X51901000Y-31101000D01*
G37*
G36*
X32610442Y-29025518D02*
G01*
X32676627Y-29032037D01*
X32846466Y-29083557D01*
X33002991Y-29167222D01*
X33038729Y-29196552D01*
X33140186Y-29279814D01*
X33223448Y-29381271D01*
X33252778Y-29417009D01*
X33336443Y-29573534D01*
X33387963Y-29743373D01*
X33405359Y-29920000D01*
X33387963Y-30096627D01*
X33336443Y-30266466D01*
X33252778Y-30422991D01*
X33223448Y-30458729D01*
X33140186Y-30560186D01*
X33038729Y-30643448D01*
X33002991Y-30672778D01*
X32846466Y-30756443D01*
X32676627Y-30807963D01*
X32610442Y-30814482D01*
X32544260Y-30821000D01*
X32455740Y-30821000D01*
X32389558Y-30814482D01*
X32323373Y-30807963D01*
X32153534Y-30756443D01*
X31997009Y-30672778D01*
X31961271Y-30643448D01*
X31859814Y-30560186D01*
X31776552Y-30458729D01*
X31747222Y-30422991D01*
X31663557Y-30266466D01*
X31612037Y-30096627D01*
X31594641Y-29920000D01*
X31612037Y-29743373D01*
X31663557Y-29573534D01*
X31747222Y-29417009D01*
X31776552Y-29381271D01*
X31859814Y-29279814D01*
X31961271Y-29196552D01*
X31997009Y-29167222D01*
X32153534Y-29083557D01*
X32323373Y-29032037D01*
X32389558Y-29025518D01*
X32455740Y-29019000D01*
X32544260Y-29019000D01*
X32610442Y-29025518D01*
X32610442Y-29025518D01*
G37*
G36*
X51748228Y-27681703D02*
G01*
X51903100Y-27745853D01*
X52042481Y-27838985D01*
X52161015Y-27957519D01*
X52254147Y-28096900D01*
X52318297Y-28251772D01*
X52351000Y-28416184D01*
X52351000Y-28583816D01*
X52318297Y-28748228D01*
X52254147Y-28903100D01*
X52161015Y-29042481D01*
X52042481Y-29161015D01*
X51903100Y-29254147D01*
X51748228Y-29318297D01*
X51583816Y-29351000D01*
X51416184Y-29351000D01*
X51251772Y-29318297D01*
X51096900Y-29254147D01*
X50957519Y-29161015D01*
X50838985Y-29042481D01*
X50745853Y-28903100D01*
X50681703Y-28748228D01*
X50649000Y-28583816D01*
X50649000Y-28416184D01*
X50681703Y-28251772D01*
X50745853Y-28096900D01*
X50838985Y-27957519D01*
X50957519Y-27838985D01*
X51096900Y-27745853D01*
X51251772Y-27681703D01*
X51416184Y-27649000D01*
X51583816Y-27649000D01*
X51748228Y-27681703D01*
X51748228Y-27681703D01*
G37*
G36*
X64366823Y-27661313D02*
G01*
X64527242Y-27709976D01*
X64594361Y-27745852D01*
X64675078Y-27788996D01*
X64804659Y-27895341D01*
X64911004Y-28024922D01*
X64911005Y-28024924D01*
X64990024Y-28172758D01*
X65038687Y-28333177D01*
X65055117Y-28500000D01*
X65038687Y-28666823D01*
X64990024Y-28827242D01*
X64949477Y-28903100D01*
X64911004Y-28975078D01*
X64804659Y-29104659D01*
X64675078Y-29211004D01*
X64675076Y-29211005D01*
X64527242Y-29290024D01*
X64366823Y-29338687D01*
X64241804Y-29351000D01*
X64158196Y-29351000D01*
X64033177Y-29338687D01*
X63872758Y-29290024D01*
X63724924Y-29211005D01*
X63724922Y-29211004D01*
X63595341Y-29104659D01*
X63488996Y-28975078D01*
X63450523Y-28903100D01*
X63409976Y-28827242D01*
X63361313Y-28666823D01*
X63344883Y-28500000D01*
X63361313Y-28333177D01*
X63409976Y-28172758D01*
X63488995Y-28024924D01*
X63488996Y-28024922D01*
X63595341Y-27895341D01*
X63724922Y-27788996D01*
X63805639Y-27745852D01*
X63872758Y-27709976D01*
X64033177Y-27661313D01*
X64158196Y-27649000D01*
X64241804Y-27649000D01*
X64366823Y-27661313D01*
X64366823Y-27661313D01*
G37*
G36*
X47838674Y-27853465D02*
G01*
X47876367Y-27864899D01*
X47911103Y-27883466D01*
X47941548Y-27908452D01*
X47966534Y-27938897D01*
X47985101Y-27973633D01*
X47996535Y-28011326D01*
X48001000Y-28056661D01*
X48001000Y-28893339D01*
X47996535Y-28938674D01*
X47985101Y-28976367D01*
X47966534Y-29011103D01*
X47941548Y-29041548D01*
X47911103Y-29066534D01*
X47876367Y-29085101D01*
X47838674Y-29096535D01*
X47793339Y-29101000D01*
X46706661Y-29101000D01*
X46661326Y-29096535D01*
X46623633Y-29085101D01*
X46588897Y-29066534D01*
X46558452Y-29041548D01*
X46533466Y-29011103D01*
X46514899Y-28976367D01*
X46503465Y-28938674D01*
X46499000Y-28893339D01*
X46499000Y-28056661D01*
X46503465Y-28011326D01*
X46514899Y-27973633D01*
X46533466Y-27938897D01*
X46558452Y-27908452D01*
X46588897Y-27883466D01*
X46623633Y-27864899D01*
X46661326Y-27853465D01*
X46706661Y-27849000D01*
X47793339Y-27849000D01*
X47838674Y-27853465D01*
X47838674Y-27853465D01*
G37*
G36*
X45951000Y-24876000D02*
G01*
X35049000Y-24876000D01*
X35049000Y-15374000D01*
X45951000Y-15374000D01*
X45951000Y-24876000D01*
X45951000Y-24876000D01*
G37*
M02*
