G04 #@! TF.GenerationSoftware,KiCad,Pcbnew,(5.1.4)-1*
G04 #@! TF.CreationDate,2021-07-03T18:30:15-04:00*
G04 #@! TF.ProjectId,beefy_linear_mosfet,62656566-795f-46c6-996e-6561725f6d6f,rev?*
G04 #@! TF.SameCoordinates,Original*
G04 #@! TF.FileFunction,Paste,Bot*
G04 #@! TF.FilePolarity,Positive*
%FSLAX46Y46*%
G04 Gerber Fmt 4.6, Leading zero omitted, Abs format (unit mm)*
G04 Created by KiCad (PCBNEW (5.1.4)-1) date 2021-07-03 18:30:15*
%MOMM*%
%LPD*%
G04 APERTURE LIST*
%ADD10C,0.100000*%
%ADD11C,1.150000*%
%ADD12R,2.200000X1.050000*%
%ADD13R,1.050000X1.000000*%
G04 APERTURE END LIST*
D10*
G36*
X45874505Y-28301204D02*
G01*
X45898773Y-28304804D01*
X45922572Y-28310765D01*
X45945671Y-28319030D01*
X45967850Y-28329520D01*
X45988893Y-28342132D01*
X46008599Y-28356747D01*
X46026777Y-28373223D01*
X46043253Y-28391401D01*
X46057868Y-28411107D01*
X46070480Y-28432150D01*
X46080970Y-28454329D01*
X46089235Y-28477428D01*
X46095196Y-28501227D01*
X46098796Y-28525495D01*
X46100000Y-28549999D01*
X46100000Y-29450001D01*
X46098796Y-29474505D01*
X46095196Y-29498773D01*
X46089235Y-29522572D01*
X46080970Y-29545671D01*
X46070480Y-29567850D01*
X46057868Y-29588893D01*
X46043253Y-29608599D01*
X46026777Y-29626777D01*
X46008599Y-29643253D01*
X45988893Y-29657868D01*
X45967850Y-29670480D01*
X45945671Y-29680970D01*
X45922572Y-29689235D01*
X45898773Y-29695196D01*
X45874505Y-29698796D01*
X45850001Y-29700000D01*
X45199999Y-29700000D01*
X45175495Y-29698796D01*
X45151227Y-29695196D01*
X45127428Y-29689235D01*
X45104329Y-29680970D01*
X45082150Y-29670480D01*
X45061107Y-29657868D01*
X45041401Y-29643253D01*
X45023223Y-29626777D01*
X45006747Y-29608599D01*
X44992132Y-29588893D01*
X44979520Y-29567850D01*
X44969030Y-29545671D01*
X44960765Y-29522572D01*
X44954804Y-29498773D01*
X44951204Y-29474505D01*
X44950000Y-29450001D01*
X44950000Y-28549999D01*
X44951204Y-28525495D01*
X44954804Y-28501227D01*
X44960765Y-28477428D01*
X44969030Y-28454329D01*
X44979520Y-28432150D01*
X44992132Y-28411107D01*
X45006747Y-28391401D01*
X45023223Y-28373223D01*
X45041401Y-28356747D01*
X45061107Y-28342132D01*
X45082150Y-28329520D01*
X45104329Y-28319030D01*
X45127428Y-28310765D01*
X45151227Y-28304804D01*
X45175495Y-28301204D01*
X45199999Y-28300000D01*
X45850001Y-28300000D01*
X45874505Y-28301204D01*
X45874505Y-28301204D01*
G37*
D11*
X45525000Y-29000000D03*
D10*
G36*
X43824505Y-28301204D02*
G01*
X43848773Y-28304804D01*
X43872572Y-28310765D01*
X43895671Y-28319030D01*
X43917850Y-28329520D01*
X43938893Y-28342132D01*
X43958599Y-28356747D01*
X43976777Y-28373223D01*
X43993253Y-28391401D01*
X44007868Y-28411107D01*
X44020480Y-28432150D01*
X44030970Y-28454329D01*
X44039235Y-28477428D01*
X44045196Y-28501227D01*
X44048796Y-28525495D01*
X44050000Y-28549999D01*
X44050000Y-29450001D01*
X44048796Y-29474505D01*
X44045196Y-29498773D01*
X44039235Y-29522572D01*
X44030970Y-29545671D01*
X44020480Y-29567850D01*
X44007868Y-29588893D01*
X43993253Y-29608599D01*
X43976777Y-29626777D01*
X43958599Y-29643253D01*
X43938893Y-29657868D01*
X43917850Y-29670480D01*
X43895671Y-29680970D01*
X43872572Y-29689235D01*
X43848773Y-29695196D01*
X43824505Y-29698796D01*
X43800001Y-29700000D01*
X43149999Y-29700000D01*
X43125495Y-29698796D01*
X43101227Y-29695196D01*
X43077428Y-29689235D01*
X43054329Y-29680970D01*
X43032150Y-29670480D01*
X43011107Y-29657868D01*
X42991401Y-29643253D01*
X42973223Y-29626777D01*
X42956747Y-29608599D01*
X42942132Y-29588893D01*
X42929520Y-29567850D01*
X42919030Y-29545671D01*
X42910765Y-29522572D01*
X42904804Y-29498773D01*
X42901204Y-29474505D01*
X42900000Y-29450001D01*
X42900000Y-28549999D01*
X42901204Y-28525495D01*
X42904804Y-28501227D01*
X42910765Y-28477428D01*
X42919030Y-28454329D01*
X42929520Y-28432150D01*
X42942132Y-28411107D01*
X42956747Y-28391401D01*
X42973223Y-28373223D01*
X42991401Y-28356747D01*
X43011107Y-28342132D01*
X43032150Y-28329520D01*
X43054329Y-28319030D01*
X43077428Y-28310765D01*
X43101227Y-28304804D01*
X43125495Y-28301204D01*
X43149999Y-28300000D01*
X43800001Y-28300000D01*
X43824505Y-28301204D01*
X43824505Y-28301204D01*
G37*
D11*
X43475000Y-29000000D03*
D10*
G36*
X37074505Y-28051204D02*
G01*
X37098773Y-28054804D01*
X37122572Y-28060765D01*
X37145671Y-28069030D01*
X37167850Y-28079520D01*
X37188893Y-28092132D01*
X37208599Y-28106747D01*
X37226777Y-28123223D01*
X37243253Y-28141401D01*
X37257868Y-28161107D01*
X37270480Y-28182150D01*
X37280970Y-28204329D01*
X37289235Y-28227428D01*
X37295196Y-28251227D01*
X37298796Y-28275495D01*
X37300000Y-28299999D01*
X37300000Y-29200001D01*
X37298796Y-29224505D01*
X37295196Y-29248773D01*
X37289235Y-29272572D01*
X37280970Y-29295671D01*
X37270480Y-29317850D01*
X37257868Y-29338893D01*
X37243253Y-29358599D01*
X37226777Y-29376777D01*
X37208599Y-29393253D01*
X37188893Y-29407868D01*
X37167850Y-29420480D01*
X37145671Y-29430970D01*
X37122572Y-29439235D01*
X37098773Y-29445196D01*
X37074505Y-29448796D01*
X37050001Y-29450000D01*
X36399999Y-29450000D01*
X36375495Y-29448796D01*
X36351227Y-29445196D01*
X36327428Y-29439235D01*
X36304329Y-29430970D01*
X36282150Y-29420480D01*
X36261107Y-29407868D01*
X36241401Y-29393253D01*
X36223223Y-29376777D01*
X36206747Y-29358599D01*
X36192132Y-29338893D01*
X36179520Y-29317850D01*
X36169030Y-29295671D01*
X36160765Y-29272572D01*
X36154804Y-29248773D01*
X36151204Y-29224505D01*
X36150000Y-29200001D01*
X36150000Y-28299999D01*
X36151204Y-28275495D01*
X36154804Y-28251227D01*
X36160765Y-28227428D01*
X36169030Y-28204329D01*
X36179520Y-28182150D01*
X36192132Y-28161107D01*
X36206747Y-28141401D01*
X36223223Y-28123223D01*
X36241401Y-28106747D01*
X36261107Y-28092132D01*
X36282150Y-28079520D01*
X36304329Y-28069030D01*
X36327428Y-28060765D01*
X36351227Y-28054804D01*
X36375495Y-28051204D01*
X36399999Y-28050000D01*
X37050001Y-28050000D01*
X37074505Y-28051204D01*
X37074505Y-28051204D01*
G37*
D11*
X36725000Y-28750000D03*
D10*
G36*
X39124505Y-28051204D02*
G01*
X39148773Y-28054804D01*
X39172572Y-28060765D01*
X39195671Y-28069030D01*
X39217850Y-28079520D01*
X39238893Y-28092132D01*
X39258599Y-28106747D01*
X39276777Y-28123223D01*
X39293253Y-28141401D01*
X39307868Y-28161107D01*
X39320480Y-28182150D01*
X39330970Y-28204329D01*
X39339235Y-28227428D01*
X39345196Y-28251227D01*
X39348796Y-28275495D01*
X39350000Y-28299999D01*
X39350000Y-29200001D01*
X39348796Y-29224505D01*
X39345196Y-29248773D01*
X39339235Y-29272572D01*
X39330970Y-29295671D01*
X39320480Y-29317850D01*
X39307868Y-29338893D01*
X39293253Y-29358599D01*
X39276777Y-29376777D01*
X39258599Y-29393253D01*
X39238893Y-29407868D01*
X39217850Y-29420480D01*
X39195671Y-29430970D01*
X39172572Y-29439235D01*
X39148773Y-29445196D01*
X39124505Y-29448796D01*
X39100001Y-29450000D01*
X38449999Y-29450000D01*
X38425495Y-29448796D01*
X38401227Y-29445196D01*
X38377428Y-29439235D01*
X38354329Y-29430970D01*
X38332150Y-29420480D01*
X38311107Y-29407868D01*
X38291401Y-29393253D01*
X38273223Y-29376777D01*
X38256747Y-29358599D01*
X38242132Y-29338893D01*
X38229520Y-29317850D01*
X38219030Y-29295671D01*
X38210765Y-29272572D01*
X38204804Y-29248773D01*
X38201204Y-29224505D01*
X38200000Y-29200001D01*
X38200000Y-28299999D01*
X38201204Y-28275495D01*
X38204804Y-28251227D01*
X38210765Y-28227428D01*
X38219030Y-28204329D01*
X38229520Y-28182150D01*
X38242132Y-28161107D01*
X38256747Y-28141401D01*
X38273223Y-28123223D01*
X38291401Y-28106747D01*
X38311107Y-28092132D01*
X38332150Y-28079520D01*
X38354329Y-28069030D01*
X38377428Y-28060765D01*
X38401227Y-28054804D01*
X38425495Y-28051204D01*
X38449999Y-28050000D01*
X39100001Y-28050000D01*
X39124505Y-28051204D01*
X39124505Y-28051204D01*
G37*
D11*
X38775000Y-28750000D03*
D12*
X55500000Y-80275000D03*
X55500000Y-83225000D03*
D13*
X53975000Y-81750000D03*
D12*
X36000000Y-82975000D03*
X36000000Y-80025000D03*
D13*
X37525000Y-81500000D03*
M02*
